<svg width="25" height="19" viewBox="0 0 25 19" fill="none" xmlns="http://www.w3.org/2000/svg">
<path opacity="0.2" d="M19.3182 9.80133V17.1752C19.3182 17.5646 19.1832 17.925 18.9553 18.2151C18.6213 18.6401 18.0892 18.9149 17.4891 18.9149H1.82981C1.22902 18.9149 0.69609 18.6401 0.362913 18.2151C0.338516 18.1839 0.314881 18.152 0.292771 18.1187C0.101234 17.8377 -0.000469249 17.51 1.6277e-06 17.1752V2.28021C1.6277e-06 1.31859 0.81884 0.540527 1.82981 0.540527H17.4891C18.1646 0.540527 18.7548 0.888623 19.0712 1.40714L16.5536 3.8024L10.9819 9.10289L6.92353 5.24272C6.20686 4.56104 4.77427 4.56104 4.05912 5.24272L2.3879 6.83164C2.13401 7.07313 1.97009 7.40019 1.8969 7.75184C1.76119 8.3922 1.92511 9.11667 2.3879 9.55694L9.5493 16.3687C10.2652 17.0497 11.697 17.0497 12.4137 16.3687L14.0849 14.7791L19.3182 9.80133Z" fill="#36DFAE"/>
<path d="M24.4682 4.71491L19.0107 9.83604L13.8259 14.7006L12.1702 16.254C11.4602 16.9195 10.0416 16.9195 9.33231 16.254L2.23721 9.59721C1.77871 9.16703 1.61631 8.45896 1.75076 7.83318C1.82327 7.48946 1.98568 7.16991 2.23721 6.93392L3.89296 5.38115C4.60149 4.71498 6.02081 4.71498 6.73085 5.38115L10.7516 9.15349L16.2718 3.97361L18.766 1.63284L19.9746 0.499633C20.6846 -0.166544 22.1039 -0.166544 22.8125 0.499633L24.4682 2.05239C24.6616 2.23446 24.8028 2.46557 24.8905 2.71921C25.1254 3.39531 24.9841 4.23086 24.4682 4.71491Z" fill="#36DFAE"/>
</svg>
