<svg width="36" height="36" viewBox="0 0 36 36" fill="none" xmlns="http://www.w3.org/2000/svg">
<path d="M19.95 8.55005C16.65 11.1 12.45 12.6 8.25 12.75L2.25 33.7501L23.25 27.7501C23.4 23.5501 24.9 19.5001 27.45 16.0501" stroke="white" stroke-opacity="0.7" stroke-width="2" stroke-linecap="round" stroke-linejoin="round"/>
<path d="M15 23.25C16.2426 23.25 17.25 22.2426 17.25 21C17.25 19.7574 16.2426 18.75 15 18.75C13.7574 18.75 12.75 19.7574 12.75 21C12.75 22.2426 13.7574 23.25 15 23.25Z" stroke="white" stroke-opacity="0.7" stroke-width="2" stroke-linecap="round" stroke-linejoin="round"/>
<path d="M2.25 33.75L13.2 22.95M33.3 11.7L24.3 2.7C23.7 2.1 22.8 2.1 22.2 2.7L19.2 5.7C18.6 6.3 18.6 7.2 19.2 7.8L28.2 16.8C28.8 17.4 29.7 17.4 30.3 16.8L33.3 13.8C33.9 13.2 33.9 12.3 33.3 11.7Z" stroke="white" stroke-opacity="0.7" stroke-width="2" stroke-linecap="round" stroke-linejoin="round"/>
</svg>
