<svg xmlns="http://www.w3.org/2000/svg" width="31" height="31" viewBox="0 0 31 31" fill="none">
  <g clip-path="url(#clip0_4853_1824)">
    <path d="M17.206 7.50366C14.3972 9.6741 10.8224 10.9508 7.24754 11.0785L2.14062 28.9527L20.0148 23.8458C20.1425 20.271 21.4192 16.8238 23.5897 13.8873" stroke="#1D555C" stroke-width="2.18868" stroke-linecap="round" stroke-linejoin="round"/>
    <path d="M12.9932 20.0157C14.0509 20.0157 14.9083 19.1583 14.9083 18.1006C14.9083 17.043 14.0509 16.1855 12.9932 16.1855C11.9355 16.1855 11.0781 17.043 11.0781 18.1006C11.0781 19.1583 11.9355 20.0157 12.9932 20.0157Z" stroke="#1D555C" stroke-width="2.18868" stroke-linecap="round" stroke-linejoin="round"/>
    <path d="M2.14062 28.9529L11.4608 19.7605M28.5689 10.185L20.9086 2.52462C20.3979 2.01393 19.6318 2.01393 19.1211 2.52462L16.5677 5.07808C16.057 5.58877 16.057 6.35481 16.5677 6.8655L24.228 14.5259C24.7387 15.0366 25.5048 15.0366 26.0155 14.5259L28.5689 11.9724C29.0796 11.4617 29.0796 10.6957 28.5689 10.185Z" stroke="#1D555C" stroke-width="2.18868" stroke-linecap="round" stroke-linejoin="round"/>
  </g>
  <defs>
    <clipPath id="clip0_4853_1824">
      <rect width="30.6415" height="30.6415" fill="white" transform="translate(0.226562 0.22644)"/>
    </clipPath>
  </defs>
</svg>