<svg width="22" height="22" viewBox="0 0 22 22" fill="none" xmlns="http://www.w3.org/2000/svg">
    <path
        d="M3.74 0.66C2.86 -0.22 1.54 -0.22 0.66 0.66C-0.22 1.54 -0.22 2.86 0.66 3.74L7.92 11L0.66 18.26C0.22 18.7 0 19.14 0 19.8C0 21.12 0.88 22 2.2 22C2.86 22 3.3 21.78 3.74 21.34L12.54 12.54C13.42 11.66 13.42 10.34 12.54 9.46L3.74 0.66ZM19.8 0C18.48 0 17.6 0.88 17.6 2.2V19.8C17.6 21.12 18.48 22 19.8 22C21.12 22 22 21.12 22 19.8V2.2C22 0.88 21.12 0 19.8 0Z"
        fill="#1D555C" />
</svg>