<svg width="24" height="24" viewBox="0 0 24 24" fill="none" xmlns="http://www.w3.org/2000/svg">
    <path
        d="M20.4 0H3.6C2.64554 0.00104183 1.73047 0.380661 1.05557 1.05557C0.380661 1.73047 0.00104183 2.64554 0 3.6V5.00626C0.00110866 5.50232 0.10521 5.99275 0.305712 6.44648C0.315972 6.47197 0.331716 6.49277 0.343656 6.51738C0.518094 6.90119 0.758784 7.25127 1.05469 7.55156L8.4 14.8969V22.8C8.40004 23.0045 8.45236 23.2057 8.55198 23.3843C8.6516 23.563 8.79522 23.7132 8.96921 23.8207C9.1432 23.9283 9.34178 23.9896 9.54612 23.9988C9.75045 24.008 9.95375 23.9649 10.1367 23.8734L14.9367 21.4734C15.136 21.3737 15.3036 21.2205 15.4208 21.0309C15.5379 20.8413 15.6 20.6229 15.6 20.4V14.8969L22.9453 7.5516C23.2411 7.25145 23.4816 6.90158 23.6561 6.518C23.6681 6.4931 23.6841 6.47201 23.6945 6.44623C23.8949 5.99257 23.999 5.50223 24 5.00626V3.6C23.999 2.64554 23.6193 1.73047 22.9444 1.05557C22.2695 0.380661 21.3545 0.00104183 20.4 0ZM21.6 4.8H2.4V3.6C2.40021 3.28181 2.52671 2.9767 2.75171 2.75171C2.9767 2.52671 3.28181 2.40021 3.6 2.4H20.4C20.7182 2.40021 21.0233 2.52671 21.2483 2.75171C21.4733 2.9767 21.5998 3.28181 21.6 3.6V4.8Z"
        fill="white" />
</svg>