<svg width="28" height="28" viewBox="0 0 28 28" fill="none" xmlns="http://www.w3.org/2000/svg">
<path d="M24.5164 23.2258L18.3203 17.0242C19.4578 15.6023 20.1414 13.7922 20.1414 11.8234C20.1414 7.22422 16.4171 3.5 11.8289 3.5C7.23511 3.5 3.51636 7.22969 3.51636 11.8234C3.51636 16.4172 7.24058 20.1469 11.8289 20.1469C13.8085 20.1469 15.6242 19.4523 17.0515 18.2984L23.2421 24.5L24.5164 23.2258ZM6.56792 17.0953C5.16245 15.6898 4.39136 13.8195 4.39136 11.8289C4.39136 9.83828 5.16792 7.96797 6.56792 6.5625C7.96792 5.15703 9.8437 4.375 11.8289 4.375C13.814 4.375 15.6843 5.15156 17.0898 6.55703C18.4953 7.9625 19.2664 9.83281 19.2664 11.8234C19.2664 13.8141 18.4898 15.6844 17.0898 17.0898C15.6843 18.4953 13.814 19.2719 11.8289 19.2719C9.8437 19.2773 7.97339 18.5008 6.56792 17.0953Z" fill="#36DFAE"/>
</svg>
