<svg width="16" height="18" viewBox="0 0 16 18" fill="none" xmlns="http://www.w3.org/2000/svg">
    <path
        d="M14.329 4.51376C14.141 4.51375 13.9549 4.55087 13.7814 4.62297C13.6079 4.69507 13.4503 4.80074 13.3177 4.9339C13.1851 5.06706 13.0802 5.2251 13.0089 5.39892C12.9376 5.57275 12.9014 5.75894 12.9023 5.9468V8.99982H12.6253V2.82456C12.6271 2.63553 12.5913 2.44802 12.52 2.27294C12.4487 2.09786 12.3433 1.9387 12.2099 1.80471C12.0765 1.67072 11.9178 1.56457 11.743 1.49245C11.5682 1.42033 11.3808 1.38366 11.1917 1.38459C10.8244 1.38459 10.4721 1.53046 10.2123 1.79012C9.95254 2.04978 9.80661 2.40196 9.80661 2.76917V8.99982H9.52266V1.46074C9.52726 1.27173 9.49422 1.08368 9.42545 0.907553C9.35668 0.731422 9.25357 0.570718 9.1221 0.43479C8.99063 0.298861 8.83344 0.190422 8.65966 0.115779C8.48589 0.0411357 8.299 0.00177973 8.10986 0C7.74251 0 7.39021 0.145876 7.13045 0.405537C6.87069 0.665197 6.72477 1.01737 6.72477 1.38459V8.99982H6.46852V2.85917C6.47433 2.66973 6.44117 2.48111 6.37109 2.305C6.30101 2.12889 6.19551 1.96904 6.06111 1.83535C5.92672 1.70165 5.7663 1.59696 5.58979 1.52776C5.41327 1.45856 5.22443 1.42633 5.03495 1.43305C4.66759 1.43305 4.31529 1.57892 4.05553 1.83858C3.79578 2.09824 3.64985 2.45042 3.64985 2.81764V11.0767L2.53484 9.54673C2.31535 9.24653 1.98555 9.04579 1.618 8.98866C1.25044 8.93154 0.875238 9.02271 0.574929 9.24212C0.274619 9.46153 0.0738026 9.79121 0.0166562 10.1586C-0.0404902 10.5261 0.0507151 10.9011 0.270207 11.2013L4.67482 17.3073C4.83215 17.5264 5.04047 17.704 5.28179 17.8246C5.52311 17.9452 5.79017 18.0053 6.05992 17.9996H12.9854C13.3646 17.9993 13.7327 17.8714 14.0304 17.6365C14.3281 17.4017 14.5382 17.0736 14.6267 16.705L15.5548 12.7521C15.6735 12.2483 15.7339 11.7327 15.7348 11.2152V5.91911C15.7348 5.5519 15.5889 5.19972 15.3291 4.94006C15.0694 4.6804 14.7171 4.53452 14.3497 4.53452L14.329 4.51376Z"
        fill="#1D555C" />
</svg>