<svg width="18" height="16" viewBox="0 0 18 16" fill="none" xmlns="http://www.w3.org/2000/svg">
    <path
        d="M8.23316 15.2627L12.6895 10.7983C12.9876 10.5002 13.1569 10.0892 13.1569 9.66208V1.61169C13.1569 0.72526 12.4316 0 11.5452 0H4.30064C3.65597 0 3.07576 0.386805 2.82595 0.975072L0.198893 7.10755C-0.486075 8.70312 0.6824 10.476 2.41497 10.476H6.96799L6.20244 14.1667C6.12185 14.5697 6.24273 14.9807 6.53283 15.2708C7.00828 15.7381 7.76577 15.7381 8.23316 15.2627ZM16.3883 0C15.5019 0 14.7766 0.72526 14.7766 1.61169V8.05844C14.7766 8.94487 15.5019 9.67013 16.3883 9.67013C17.2747 9.67013 18 8.94487 18 8.05844V1.61169C18 0.72526 17.2747 0 16.3883 0Z"
        fill="#1D555C" />
</svg>