<svg width="18" height="17" viewBox="0 0 18 17" fill="none" xmlns="http://www.w3.org/2000/svg">
    <path
        d="M0 16.3636H3.27273V6.54545H0V16.3636ZM18 7.36364C18 6.45955 17.2677 5.72727 16.3636 5.72727H11.1968L11.9782 1.98818C11.9945 1.90636 12.0068 1.82045 12.0068 1.73045C12.0068 1.39091 11.8677 1.08409 11.6468 0.863182L10.7755 0L5.38773 5.38773C5.09318 5.68636 4.90909 6.09545 4.90909 6.54545V14.7273C4.90909 15.6314 5.64136 16.3636 6.54545 16.3636H13.9091C14.5882 16.3636 15.1691 15.9505 15.4145 15.3655L17.8814 9.59727C17.9579 9.40736 17.9982 9.20476 18 9V7.43318L17.9918 7.425L18 7.36364Z"
        fill="#1D555C" />
</svg>