<svg width="56" height="56" viewBox="0 0 56 56" fill="none" xmlns="http://www.w3.org/2000/svg">
    <path
        d="M18.788 15.978L25.2 9.53642V36.3951C25.2 37.1379 25.495 37.8503 26.0201 38.3755C26.5452 38.9007 27.2574 39.1958 28 39.1958C28.7426 39.1958 29.4548 38.9007 29.9799 38.3755C30.505 37.8503 30.8 37.1379 30.8 36.3951V9.53642L37.212 15.978C37.4723 16.2405 37.782 16.4489 38.1232 16.5911C38.4644 16.7333 38.8304 16.8065 39.2 16.8065C39.5696 16.8065 39.9356 16.7333 40.2768 16.5911C40.618 16.4489 40.9277 16.2405 41.188 15.978C41.4504 15.7177 41.6587 15.4079 41.8009 15.0666C41.9431 14.7253 42.0162 14.3593 42.0162 13.9895C42.0162 13.6198 41.9431 13.2537 41.8009 12.9124C41.6587 12.5712 41.4504 12.2614 41.188 12.001L29.988 0.798237C29.7217 0.54326 29.4077 0.343388 29.064 0.21009C28.3823 -0.0700301 27.6177 -0.0700301 26.936 0.21009C26.5923 0.343388 26.2783 0.54326 26.012 0.798237L14.812 12.001C14.5509 12.2622 14.3438 12.5722 14.2026 12.9134C14.0613 13.2545 13.9885 13.6202 13.9885 13.9895C13.9885 14.3588 14.0613 14.7245 14.2026 15.0657C14.3438 15.4069 14.5509 15.7169 14.812 15.978C15.0731 16.2392 15.383 16.4463 15.7241 16.5876C16.0652 16.7289 16.4308 16.8017 16.8 16.8017C17.1692 16.8017 17.5348 16.7289 17.8759 16.5876C18.217 16.4463 18.5269 16.2392 18.788 15.978ZM53.2 27.993C52.4574 27.993 51.7452 28.2881 51.2201 28.8133C50.695 29.3386 50.4 30.0509 50.4 30.7937V47.5979C50.4 48.3407 50.105 49.0531 49.5799 49.5783C49.0548 50.1035 48.3426 50.3986 47.6 50.3986H8.4C7.65739 50.3986 6.9452 50.1035 6.4201 49.5783C5.895 49.0531 5.6 48.3407 5.6 47.5979V30.7937C5.6 30.0509 5.305 29.3386 4.7799 28.8133C4.2548 28.2881 3.54261 27.993 2.8 27.993C2.05739 27.993 1.3452 28.2881 0.820101 28.8133C0.294999 29.3386 0 30.0509 0 30.7937V47.5979C0 49.8263 0.884998 51.9634 2.4603 53.5391C4.03561 55.1148 6.17218 56 8.4 56H47.6C49.8278 56 51.9644 55.1148 53.5397 53.5391C55.115 51.9634 56 49.8263 56 47.5979V30.7937C56 30.0509 55.705 29.3386 55.1799 28.8133C54.6548 28.2881 53.9426 27.993 53.2 27.993Z"
        fill="#1D555C" />
</svg>