<svg width="491" height="171" viewBox="0 0 491 171" fill="none" xmlns="http://www.w3.org/2000/svg">
<path d="M18.77 139.988C18.77 143.11 20.268 145.182 22.788 145.182C25.294 145.182 26.792 143.11 26.792 139.988C26.792 136.88 25.266 134.78 22.788 134.78C20.296 134.78 18.77 136.88 18.77 139.988ZM19.764 139.988C19.764 137.37 20.87 135.704 22.788 135.704C24.706 135.704 25.812 137.37 25.812 139.988C25.812 142.592 24.706 144.272 22.788 144.272C20.87 144.272 19.764 142.592 19.764 139.988Z" fill="white"/>
<path d="M6.534 91.886V101H7.5V90.976H4.49V91.886H6.534ZM9.44578 95.988C9.44578 99.11 10.9438 101.182 13.4638 101.182C15.9698 101.182 17.4678 99.11 17.4678 95.988C17.4678 92.88 15.9418 90.78 13.4638 90.78C10.9718 90.78 9.44578 92.88 9.44578 95.988ZM10.4398 95.988C10.4398 93.37 11.5458 91.704 13.4638 91.704C15.3818 91.704 16.4878 93.37 16.4878 95.988C16.4878 98.592 15.3818 100.272 13.4638 100.272C11.5458 100.272 10.4398 98.592 10.4398 95.988ZM19.0024 95.988C19.0024 99.11 20.5004 101.182 23.0204 101.182C25.5264 101.182 27.0244 99.11 27.0244 95.988C27.0244 92.88 25.4984 90.78 23.0204 90.78C20.5284 90.78 19.0024 92.88 19.0024 95.988ZM19.9964 95.988C19.9964 93.37 21.1024 91.704 23.0204 91.704C24.9384 91.704 26.0444 93.37 26.0444 95.988C26.0444 98.592 24.9384 100.272 23.0204 100.272C21.1024 100.272 19.9964 98.592 19.9964 95.988Z" fill="white"/>
<path d="M8.238 57V56.062H3.184L5.522 54.018C7.524 52.268 8.182 51.302 8.182 49.846C8.182 48.012 6.922 46.794 5.032 46.794C3.058 46.794 1.728 48.18 1.672 50.28H2.68C2.722 48.726 3.632 47.718 5.018 47.718C6.348 47.718 7.16 48.544 7.16 49.902C7.16 51.092 6.684 51.792 4.836 53.402L1.63 56.202V57H8.238ZM9.63133 51.988C9.63133 55.11 11.1293 57.182 13.6493 57.182C16.1553 57.182 17.6533 55.11 17.6533 51.988C17.6533 48.88 16.1273 46.78 13.6493 46.78C11.1573 46.78 9.63133 48.88 9.63133 51.988ZM10.6253 51.988C10.6253 49.37 11.7313 47.704 13.6493 47.704C15.5673 47.704 16.6733 49.37 16.6733 51.988C16.6733 54.592 15.5673 56.272 13.6493 56.272C11.7313 56.272 10.6253 54.592 10.6253 51.988ZM19.188 51.988C19.188 55.11 20.686 57.182 23.206 57.182C25.712 57.182 27.21 55.11 27.21 51.988C27.21 48.88 25.684 46.78 23.206 46.78C20.714 46.78 19.188 48.88 19.188 51.988ZM20.182 51.988C20.182 49.37 21.288 47.704 23.206 47.704C25.124 47.704 26.23 49.37 26.23 51.988C26.23 54.592 25.124 56.272 23.206 56.272C21.288 56.272 20.182 54.592 20.182 51.988Z" fill="white"/>
<path d="M3.542 9.624C5.334 9.624 6.314 10.478 6.314 11.85C6.314 13.306 5.348 14.258 3.85 14.258C2.436 14.258 1.54 13.39 1.54 11.948H0.546C0.546 13.95 1.876 15.168 3.85 15.168C5.88 15.168 7.336 13.866 7.336 11.878C7.336 10.058 5.992 8.868 4.116 8.77L7.112 5.788V4.976H1.036V5.872H5.838L2.744 8.924V9.624H3.542ZM8.72703 9.988C8.72703 13.11 10.225 15.182 12.745 15.182C15.251 15.182 16.749 13.11 16.749 9.988C16.749 6.88 15.223 4.78 12.745 4.78C10.253 4.78 8.72703 6.88 8.72703 9.988ZM9.72103 9.988C9.72103 7.37 10.827 5.704 12.745 5.704C14.663 5.704 15.769 7.37 15.769 9.988C15.769 12.592 14.663 14.272 12.745 14.272C10.827 14.272 9.72103 12.592 9.72103 9.988ZM18.2837 9.988C18.2837 13.11 19.7817 15.182 22.3017 15.182C24.8077 15.182 26.3057 13.11 26.3057 9.988C26.3057 6.88 24.7797 4.78 22.3017 4.78C19.8097 4.78 18.2837 6.88 18.2837 9.988ZM19.2777 9.988C19.2777 7.37 20.3837 5.704 22.3017 5.704C24.2197 5.704 25.3257 7.37 25.3257 9.988C25.3257 12.592 24.2197 14.272 22.3017 14.272C20.3837 14.272 19.2777 12.592 19.2777 9.988Z" fill="white"/>
<path d="M104.218 167L105.198 164.34H109.818L110.798 167H111.848L108.124 156.976H106.878L103.196 167H104.218ZM107.368 158.39C107.424 158.25 107.48 158.068 107.494 157.984C107.508 158.082 107.578 158.25 107.62 158.39L109.496 163.458H105.506L107.368 158.39ZM113.031 169.954H113.997V165.698C114.473 166.678 115.383 167.168 116.531 167.168C118.533 167.168 119.667 165.628 119.667 163.584C119.667 161.54 118.491 160.042 116.531 160.042C115.397 160.042 114.445 160.546 113.969 161.596L113.871 160.224H113.031V169.954ZM114.011 163.612C114.011 162.044 114.879 160.924 116.363 160.924C117.833 160.924 118.687 162.044 118.687 163.612C118.687 165.166 117.833 166.3 116.363 166.3C114.879 166.3 114.011 165.166 114.011 163.612ZM124.749 160.14C124.511 160.084 124.329 160.07 124.119 160.07C123.167 160.07 122.453 160.546 122.187 161.274L122.117 160.224H121.207V167H122.173V163.136C122.173 161.848 122.971 161.008 124.217 161.008H124.749V160.14Z" fill="white"/>
<path d="M192.28 164.242C192.28 165.978 193.316 167.168 195.122 167.168C196.816 167.168 197.992 166.076 197.992 164.256V156.976H196.984V164.228C196.984 165.418 196.396 166.216 195.122 166.216C193.904 166.216 193.26 165.432 193.26 164.242V163.85H192.28V164.242ZM204.905 160.224V163.822C204.905 165.432 204.135 166.3 202.833 166.3C201.755 166.3 201.041 165.726 201.041 164.116V160.21H200.061V164.424C200.061 166.076 200.929 167.168 202.525 167.168C203.589 167.168 204.527 166.636 204.905 165.852L205.031 167H205.871V160.224H204.905ZM208.891 167V156.794H207.925V167H208.891Z" fill="white"/>
<path d="M291.15 161.988C291.15 158.936 289.19 156.794 286.376 156.794C283.576 156.794 281.602 158.95 281.602 161.988C281.602 165.026 283.562 167.168 286.376 167.168C289.176 167.168 291.15 165.026 291.15 161.988ZM290.114 161.988C290.114 164.48 288.588 166.202 286.376 166.202C284.164 166.202 282.652 164.494 282.652 161.988C282.652 159.482 284.164 157.774 286.376 157.774C288.588 157.774 290.114 159.482 290.114 161.988ZM292.292 163.626C292.292 165.754 293.594 167.168 295.512 167.168C297.052 167.168 298.256 166.258 298.578 164.872H297.598C297.332 165.74 296.52 166.3 295.512 166.3C294.14 166.3 293.244 165.222 293.244 163.612C293.244 161.946 294.21 160.896 295.582 160.896C296.52 160.896 297.332 161.414 297.584 162.352H298.55C298.284 160.952 297.136 160.042 295.568 160.042C293.594 160.042 292.292 161.498 292.292 163.626ZM301.595 167V161.036H302.953V160.224H301.595V158.082H300.643V160.224H299.285V161.036H300.643V167H301.595Z" fill="white"/>
<path d="M377.238 167V166.062H372.184L374.522 164.018C376.524 162.268 377.182 161.302 377.182 159.846C377.182 158.012 375.922 156.794 374.032 156.794C372.058 156.794 370.728 158.18 370.672 160.28H371.68C371.722 158.726 372.632 157.718 374.018 157.718C375.348 157.718 376.16 158.544 376.16 159.902C376.16 161.092 375.684 161.792 373.836 163.402L370.63 166.202V167H377.238ZM378.631 161.988C378.631 165.11 380.129 167.182 382.649 167.182C385.155 167.182 386.653 165.11 386.653 161.988C386.653 158.88 385.127 156.78 382.649 156.78C380.157 156.78 378.631 158.88 378.631 161.988ZM379.625 161.988C379.625 159.37 380.731 157.704 382.649 157.704C384.567 157.704 385.673 159.37 385.673 161.988C385.673 164.592 384.567 166.272 382.649 166.272C380.731 166.272 379.625 164.592 379.625 161.988ZM394.656 167V166.062H389.602L391.94 164.018C393.942 162.268 394.6 161.302 394.6 159.846C394.6 158.012 393.34 156.794 391.45 156.794C389.476 156.794 388.146 158.18 388.09 160.28H389.098C389.14 158.726 390.05 157.718 391.436 157.718C392.766 157.718 393.578 158.544 393.578 159.902C393.578 161.092 393.102 161.792 391.254 163.402L388.048 166.202V167H394.656ZM398.849 161.624C400.641 161.624 401.621 162.478 401.621 163.85C401.621 165.306 400.655 166.258 399.157 166.258C397.743 166.258 396.847 165.39 396.847 163.948H395.853C395.853 165.95 397.183 167.168 399.157 167.168C401.187 167.168 402.643 165.866 402.643 163.878C402.643 162.058 401.299 160.868 399.423 160.77L402.419 157.788V156.976H396.343V157.872H401.145L398.051 160.924V161.624H398.849Z" fill="white"/>
<line x1="40" y1="141.5" x2="488" y2="141.5" stroke="white"/>
<line x1="40.5" y1="2.18561e-08" x2="40.5" y2="142" stroke="white"/>
<path d="M44.5 128C64.6667 127.333 105.5 116 143.5 103.5C159.431 98.2596 190.5 90.5 243.5 90C296.5 89.5 333.896 97.7063 380.5 87C417.5 78.5 436 52 442 39.5C447.189 28.6905 463.2 5.7 490 2.5" stroke="#36DFAE" stroke-width="2"/>
</svg>
