<svg width="140" height="140" viewBox="0 0 140 140" fill="none" xmlns="http://www.w3.org/2000/svg">
<rect width="140" height="140" fill="white"/>
<g clip-path="url(#clip0_2019_17783)">
<path d="M69.6927 60.2785C75.9315 60.2785 80.989 55.221 80.989 48.9823C80.989 42.7435 75.9315 37.686 69.6927 37.686C63.454 37.686 58.3965 42.7435 58.3965 48.9823C58.3965 55.221 63.454 60.2785 69.6927 60.2785Z" stroke="#1D555C" stroke-width="3" stroke-linecap="round" stroke-linejoin="round"/>
<path d="M49.5332 79.8872C49.5332 72.3972 58.8345 66.3247 70.3057 66.3247C81.777 66.3247 91.0782 72.3972 91.0782 79.8872" stroke="#1D555C" stroke-width="3" stroke-linecap="round" stroke-linejoin="round"/>
<path d="M39.8568 73.1848C46.0955 73.1848 51.153 68.1273 51.153 61.8885C51.153 55.6498 46.0955 50.5923 39.8568 50.5923C33.618 50.5923 28.5605 55.6498 28.5605 61.8885C28.5605 68.1273 33.618 73.1848 39.8568 73.1848Z" stroke="#1D555C" stroke-width="3" stroke-linecap="round" stroke-linejoin="round"/>
<path d="M19.6875 110.687V92.7935C19.6875 85.3035 28.9887 79.231 40.46 79.231C51.9312 79.231 61.2325 85.3035 61.2325 92.7935V110.687" stroke="#1D555C" stroke-width="3" stroke-linecap="round" stroke-linejoin="round"/>
<path d="M30.9844 97.3784V110.285" stroke="#1D555C" stroke-width="3" stroke-linecap="round" stroke-linejoin="round"/>
<path d="M49.5332 97.3784V110.285" stroke="#1D555C" stroke-width="3" stroke-linecap="round" stroke-linejoin="round"/>
<path d="M99.5404 73.1848C105.779 73.1848 110.837 68.1273 110.837 61.8885C110.837 55.6498 105.779 50.5923 99.5404 50.5923C93.3016 50.5923 88.2441 55.6498 88.2441 61.8885C88.2441 68.1273 93.3016 73.1848 99.5404 73.1848Z" stroke="#1D555C" stroke-width="3" stroke-linecap="round" stroke-linejoin="round"/>
<path d="M79.3711 110.687V92.7935C79.3711 85.3035 88.6723 79.231 100.144 79.231C111.615 79.231 120.916 85.3035 120.916 92.7935V110.687" stroke="#1D555C" stroke-width="3" stroke-linecap="round" stroke-linejoin="round"/>
<path d="M90.668 97.3784V110.285" stroke="#1D555C" stroke-width="3" stroke-linecap="round" stroke-linejoin="round"/>
<path d="M109.217 97.3784V110.285" stroke="#1D555C" stroke-width="3" stroke-linecap="round" stroke-linejoin="round"/>
<path d="M69.6934 12.6875V24.7887" stroke="#36DFAE" stroke-width="3" stroke-linecap="round" stroke-linejoin="round"/>
<path d="M102.768 23.1699L98.332 31.3512" stroke="#36DFAE" stroke-width="3" stroke-linecap="round" stroke-linejoin="round"/>
<path d="M36.2344 23.1699L40.6619 31.3512" stroke="#36DFAE" stroke-width="3" stroke-linecap="round" stroke-linejoin="round"/>
</g>
<defs>
<clipPath id="clip0_2019_17783">
<rect width="103.854" height="100.625" fill="white" transform="translate(18.375 11.375)"/>
</clipPath>
</defs>
</svg>
