<svg width="315" height="331" viewBox="0 0 315 331" fill="none" xmlns="http://www.w3.org/2000/svg">
<path d="M4.554 19V7.604L12.122 19H14.894V2.918H12.122V14.314L4.576 2.918H1.782V19H4.554ZM22.9199 19.286C25.7579 19.286 27.7379 17.856 28.1999 15.48H25.7139C25.4059 16.514 24.4379 17.086 22.9639 17.086C21.1819 17.086 20.1699 16.118 19.9719 14.204L28.1559 14.182V13.368C28.1559 9.98 26.0879 7.802 22.8319 7.802C19.6419 7.802 17.4199 10.156 17.4199 13.566C17.4199 16.932 19.6859 19.286 22.9199 19.286ZM22.8539 10.002C24.4599 10.002 25.4939 10.992 25.4939 12.488H20.0379C20.3019 10.86 21.2699 10.002 22.8539 10.002ZM32.2293 19H34.8473L36.3433 14.336C36.8933 12.554 37.0913 11.784 37.2013 11.278C37.2893 11.828 37.5313 12.862 37.9713 14.292L39.4673 19H41.9753L45.7373 8.132H42.8993L41.4473 12.796C41.2493 13.478 40.8973 14.776 40.7213 15.59C40.5893 14.864 40.1493 13.236 40.0173 12.796L38.5653 8.132H35.8373L34.3413 12.796C33.9893 13.874 33.7913 14.556 33.5933 15.612C33.3953 14.6 33.1753 13.654 32.9333 12.796L31.5033 8.132H28.7093L32.2293 19ZM53.5783 13.126C53.5783 16.91 56.0423 19.264 59.9363 19.264C63.8523 19.264 66.3163 16.888 66.3163 13.126V2.918H63.5003V12.95C63.5003 15.238 62.2243 16.536 59.9363 16.536C57.6483 16.536 56.3943 15.26 56.3943 12.95V2.918H53.5783V13.126ZM68.3977 15.7C68.3977 17.834 70.1137 19.286 72.8197 19.286C75.5037 19.286 77.3737 17.922 77.3737 15.722C77.3737 14.05 76.4497 13.214 74.6237 12.796L72.6657 12.334C71.7417 12.114 71.2577 11.718 71.2577 11.102C71.2577 10.288 71.8737 9.804 72.9297 9.804C73.9637 9.804 74.5797 10.398 74.6017 11.322H77.1537C77.1317 9.21 75.4817 7.802 73.0397 7.802C70.5317 7.802 68.7277 9.078 68.7277 11.212C68.7277 12.95 69.6737 13.874 71.6317 14.314L73.5897 14.776C74.5577 14.996 74.8437 15.392 74.8437 15.942C74.8437 16.734 74.1617 17.24 72.9077 17.24C71.6757 17.24 70.9717 16.646 70.9497 15.7H68.3977ZM84.2793 19.286C87.1173 19.286 89.0973 17.856 89.5593 15.48H87.0733C86.7653 16.514 85.7973 17.086 84.3233 17.086C82.5413 17.086 81.5293 16.118 81.3313 14.204L89.5153 14.182V13.368C89.5153 9.98 87.4473 7.802 84.1913 7.802C81.0013 7.802 78.7793 10.156 78.7793 13.566C78.7793 16.932 81.0453 19.286 84.2793 19.286ZM84.2133 10.002C85.8193 10.002 86.8533 10.992 86.8533 12.488H81.3973C81.6613 10.86 82.6293 10.002 84.2133 10.002ZM98.4833 8.088C98.0433 7.978 97.6693 7.934 97.2953 7.934C95.8433 7.934 94.8093 8.66 94.3473 9.738L94.1933 8.154H91.6633V19H94.3473V13.72C94.3473 11.608 95.5573 10.574 97.4933 10.574H98.4833V8.088Z" fill="white"/>
<path d="M210.28 12.242C210.28 13.978 211.316 15.168 213.122 15.168C214.816 15.168 215.992 14.076 215.992 12.256V4.976H214.984V12.228C214.984 13.418 214.396 14.216 213.122 14.216C211.904 14.216 211.26 13.432 211.26 12.242V11.85H210.28V12.242ZM217.669 11.612C217.669 13.67 219.125 15.168 221.113 15.168C223.101 15.168 224.557 13.67 224.557 11.612C224.557 9.54 223.101 8.042 221.113 8.042C219.125 8.042 217.669 9.54 217.669 11.612ZM218.649 11.598C218.649 10.03 219.657 8.91 221.113 8.91C222.555 8.91 223.577 10.03 223.577 11.598C223.577 13.194 222.555 14.3 221.113 14.3C219.657 14.3 218.649 13.194 218.649 11.598ZM226.578 6.362C226.97 6.362 227.306 6.04 227.306 5.648C227.306 5.256 226.97 4.92 226.578 4.92C226.186 4.92 225.864 5.256 225.864 5.648C225.864 6.04 226.186 6.362 226.578 6.362ZM226.102 15H227.068V8.224H226.102V15ZM230.048 15V11.458C230.048 9.932 230.832 8.924 232.218 8.924C233.338 8.924 234.052 9.484 234.052 11.066V15H235.018V10.856C235.018 9.148 234.248 8.042 232.386 8.042C231.406 8.042 230.51 8.532 230.062 9.4L229.922 8.224H229.082V15H230.048ZM242.03 15V10.086C242.03 8.56 242.002 7.454 241.946 7.076L245.208 15H246.174L249.436 7.034C249.38 7.72 249.352 8.49 249.352 10.24V15H250.346V4.976H249.338L245.684 13.81L242.03 4.976H241.036V15H242.03ZM255.413 15.168C257.009 15.168 258.059 14.398 258.423 12.97H257.499C257.247 13.866 256.533 14.342 255.427 14.342C253.971 14.342 253.103 13.39 253.033 11.738H258.423V11.262C258.423 9.344 257.177 8.042 255.343 8.042C253.41 8.042 252.095 9.498 252.095 11.612C252.095 13.74 253.425 15.168 255.413 15.168ZM255.343 8.868C256.617 8.868 257.457 9.736 257.457 11.038H253.061C253.229 9.708 254.069 8.868 255.343 8.868ZM260.933 15V10.8C260.933 9.764 261.619 8.924 262.753 8.924C263.775 8.924 264.433 9.596 264.433 10.744V15H265.385V10.814C265.385 9.764 266.057 8.91 267.191 8.91C268.227 8.91 268.871 9.596 268.871 10.758V15H269.809V10.562C269.809 8.994 268.843 8.042 267.373 8.042C266.281 8.042 265.455 8.602 265.147 9.484C264.825 8.602 264.027 8.042 262.963 8.042C262.011 8.042 261.255 8.476 260.919 9.19L260.807 8.224H259.967V15H260.933ZM272.592 15L272.69 13.614C273.166 14.664 274.104 15.168 275.238 15.168C277.212 15.168 278.388 13.656 278.388 11.626C278.388 9.582 277.24 8.042 275.266 8.042C274.118 8.042 273.194 8.546 272.718 9.54V4.794H271.752V15H272.592ZM272.732 11.598C272.732 10.044 273.6 8.91 275.084 8.91C276.554 8.91 277.408 10.044 277.408 11.598C277.408 13.166 276.554 14.286 275.084 14.286C273.6 14.286 272.732 13.166 272.732 11.598ZM282.77 15.168C284.366 15.168 285.416 14.398 285.78 12.97H284.856C284.604 13.866 283.89 14.342 282.784 14.342C281.328 14.342 280.46 13.39 280.39 11.738H285.78V11.262C285.78 9.344 284.534 8.042 282.7 8.042C280.768 8.042 279.452 9.498 279.452 11.612C279.452 13.74 280.782 15.168 282.77 15.168ZM282.7 8.868C283.974 8.868 284.814 9.736 284.814 11.038H280.418C280.586 9.708 281.426 8.868 282.7 8.868ZM290.866 8.14C290.628 8.084 290.446 8.07 290.236 8.07C289.284 8.07 288.57 8.546 288.304 9.274L288.234 8.224H287.324V15H288.29V11.136C288.29 9.848 289.088 9.008 290.334 9.008H290.866V8.14Z" fill="white"/>
<circle cx="192.5" cy="10.5" r="7.5" fill="#36DFAE"/>
<path d="M212.226 33.976H211.218V44H212.226V33.976ZM215.419 44V40.458C215.419 38.932 216.203 37.924 217.589 37.924C218.709 37.924 219.423 38.484 219.423 40.066V44H220.389V39.856C220.389 38.148 219.619 37.042 217.757 37.042C216.777 37.042 215.881 37.532 215.433 38.4L215.293 37.224H214.453V44H215.419ZM224.068 44H225.034L227.848 37.224H226.854L225.076 41.592C224.88 42.082 224.698 42.53 224.572 42.992C224.446 42.544 224.264 42.082 224.082 41.592L222.332 37.224H221.296L224.068 44ZM231.528 44.168C233.124 44.168 234.174 43.398 234.538 41.97H233.614C233.362 42.866 232.648 43.342 231.542 43.342C230.086 43.342 229.218 42.39 229.148 40.738H234.538V40.262C234.538 38.344 233.292 37.042 231.458 37.042C229.526 37.042 228.21 38.498 228.21 40.612C228.21 42.74 229.54 44.168 231.528 44.168ZM231.458 37.868C232.732 37.868 233.572 38.736 233.572 40.038H229.176C229.344 38.708 230.184 37.868 231.458 37.868ZM235.508 42.096C235.508 43.356 236.46 44.168 237.986 44.168C239.526 44.168 240.562 43.37 240.562 42.152C240.562 41.172 240.03 40.626 238.854 40.332L237.692 40.038C236.95 39.856 236.586 39.492 236.586 38.974C236.586 38.246 237.118 37.84 238.07 37.84C238.98 37.84 239.526 38.302 239.554 39.086H240.492C240.45 37.826 239.526 37.042 238.098 37.042C236.642 37.042 235.648 37.798 235.648 38.988C235.648 39.912 236.222 40.528 237.398 40.822L238.56 41.116C239.358 41.312 239.638 41.634 239.638 42.194C239.638 42.922 239.022 43.37 237.972 43.37C237.02 43.37 236.432 42.88 236.432 42.096H235.508ZM243.707 44V38.036H245.065V37.224H243.707V35.082H242.755V37.224H241.397V38.036H242.755V44H243.707ZM249.096 44.168C250.692 44.168 251.742 43.398 252.106 41.97H251.182C250.93 42.866 250.216 43.342 249.11 43.342C247.654 43.342 246.786 42.39 246.716 40.738H252.106V40.262C252.106 38.344 250.86 37.042 249.026 37.042C247.094 37.042 245.778 38.498 245.778 40.612C245.778 42.74 247.108 44.168 249.096 44.168ZM249.026 37.868C250.3 37.868 251.14 38.736 251.14 40.038H246.744C246.912 38.708 247.752 37.868 249.026 37.868ZM256.311 44.168C257.445 44.168 258.397 43.664 258.873 42.614L258.971 44H259.811V33.794H258.845V38.512C258.369 37.532 257.473 37.042 256.353 37.042C254.337 37.042 253.175 38.582 253.175 40.626C253.175 42.656 254.337 44.168 256.311 44.168ZM256.479 43.286C255.009 43.286 254.155 42.166 254.155 40.598C254.155 39.044 255.009 37.91 256.479 37.91C257.963 37.91 258.831 39.044 258.831 40.598C258.831 42.166 257.963 43.286 256.479 43.286Z" fill="white"/>
<circle cx="192.5" cy="39.5" r="7.5" fill="#33A1AA"/>
<path d="M0.77 295.988C0.77 299.11 2.268 301.182 4.788 301.182C7.294 301.182 8.792 299.11 8.792 295.988C8.792 292.88 7.266 290.78 4.788 290.78C2.296 290.78 0.77 292.88 0.77 295.988ZM1.764 295.988C1.764 293.37 2.87 291.704 4.788 291.704C6.706 291.704 7.812 293.37 7.812 295.988C7.812 298.592 6.706 300.272 4.788 300.272C2.87 300.272 1.764 298.592 1.764 295.988Z" fill="white"/>
<path d="M41.28 324.242C41.28 325.978 42.316 327.168 44.122 327.168C45.816 327.168 46.992 326.076 46.992 324.256V316.976H45.984V324.228C45.984 325.418 45.396 326.216 44.122 326.216C42.904 326.216 42.26 325.432 42.26 324.242V323.85H41.28V324.242ZM51.0907 327.168C52.2387 327.168 53.1627 326.664 53.5827 325.81L53.7087 327H54.5207V322.618C54.5207 320.826 53.3727 320.042 51.8047 320.042C50.1387 320.042 49.0187 320.924 49.0187 322.296H49.9007C49.9007 321.386 50.6007 320.854 51.7767 320.854C52.7707 320.854 53.5687 321.274 53.5687 322.604V322.828L51.3287 323.01C49.7467 323.136 48.7947 323.92 48.7947 325.166C48.7947 326.356 49.6487 327.168 51.0907 327.168ZM51.3147 326.384C50.3907 326.384 49.7747 325.964 49.7747 325.138C49.7747 324.382 50.2927 323.822 51.5667 323.71L53.5687 323.556V323.92C53.5687 325.39 52.7427 326.384 51.3147 326.384ZM57.4252 327V323.458C57.4252 321.932 58.2092 320.924 59.5952 320.924C60.7152 320.924 61.4292 321.484 61.4292 323.066V327H62.3952V322.856C62.3952 321.148 61.6252 320.042 59.7632 320.042C58.7832 320.042 57.8872 320.532 57.4392 321.4L57.2992 320.224H56.4592V327H57.4252Z" fill="white"/>
<path d="M96.328 322.59V321.68H92.226V317.9H97.126V316.976H91.218V327H92.226V322.59H96.328ZM100.918 327.168C102.514 327.168 103.564 326.398 103.928 324.97H103.004C102.752 325.866 102.038 326.342 100.932 326.342C99.4764 326.342 98.6084 325.39 98.5384 323.738H103.928V323.262C103.928 321.344 102.682 320.042 100.848 320.042C98.9164 320.042 97.6004 321.498 97.6004 323.612C97.6004 325.74 98.9304 327.168 100.918 327.168ZM100.848 320.868C102.122 320.868 102.962 321.736 102.962 323.038H98.5664C98.7344 321.708 99.5744 320.868 100.848 320.868ZM106.313 327L106.411 325.614C106.887 326.664 107.825 327.168 108.959 327.168C110.933 327.168 112.109 325.656 112.109 323.626C112.109 321.582 110.961 320.042 108.987 320.042C107.839 320.042 106.915 320.546 106.439 321.54V316.794H105.473V327H106.313ZM106.453 323.598C106.453 322.044 107.321 320.91 108.805 320.91C110.275 320.91 111.129 322.044 111.129 323.598C111.129 325.166 110.275 326.286 108.805 326.286C107.321 326.286 106.453 325.166 106.453 323.598Z" fill="white"/>
<path d="M142.212 327V322.086C142.212 320.56 142.184 319.454 142.128 319.076L145.39 327H146.356L149.618 319.034C149.562 319.72 149.534 320.49 149.534 322.24V327H150.528V316.976H149.52L145.866 325.81L142.212 316.976H141.218V327H142.212ZM154.698 327.168C155.846 327.168 156.77 326.664 157.19 325.81L157.316 327H158.128V322.618C158.128 320.826 156.98 320.042 155.412 320.042C153.746 320.042 152.626 320.924 152.626 322.296H153.508C153.508 321.386 154.208 320.854 155.384 320.854C156.378 320.854 157.176 321.274 157.176 322.604V322.828L154.936 323.01C153.354 323.136 152.402 323.92 152.402 325.166C152.402 326.356 153.256 327.168 154.698 327.168ZM154.922 326.384C153.998 326.384 153.382 325.964 153.382 325.138C153.382 324.382 153.9 323.822 155.174 323.71L157.176 323.556V323.92C157.176 325.39 156.35 326.384 154.922 326.384ZM163.609 320.14C163.371 320.084 163.189 320.07 162.979 320.07C162.027 320.07 161.313 320.546 161.047 321.274L160.977 320.224H160.067V327H161.033V323.136C161.033 321.848 161.831 321.008 163.077 321.008H163.609V320.14Z" fill="white"/>
<path d="M190.218 327L191.198 324.34H195.818L196.798 327H197.848L194.124 316.976H192.878L189.196 327H190.218ZM193.368 318.39C193.424 318.25 193.48 318.068 193.494 317.984C193.508 318.082 193.578 318.25 193.62 318.39L195.496 323.458H191.506L193.368 318.39ZM199.031 329.954H199.997V325.698C200.473 326.678 201.383 327.168 202.531 327.168C204.533 327.168 205.667 325.628 205.667 323.584C205.667 321.54 204.491 320.042 202.531 320.042C201.397 320.042 200.445 320.546 199.969 321.596L199.871 320.224H199.031V329.954ZM200.011 323.612C200.011 322.044 200.879 320.924 202.363 320.924C203.833 320.924 204.687 322.044 204.687 323.612C204.687 325.166 203.833 326.3 202.363 326.3C200.879 326.3 200.011 325.166 200.011 323.612ZM210.749 320.14C210.511 320.084 210.329 320.07 210.119 320.07C209.167 320.07 208.453 320.546 208.187 321.274L208.117 320.224H207.207V327H208.173V323.136C208.173 321.848 208.971 321.008 210.217 321.008H210.749V320.14Z" fill="white"/>
<path d="M241.212 327V322.086C241.212 320.56 241.184 319.454 241.128 319.076L244.39 327H245.356L248.618 319.034C248.562 319.72 248.534 320.49 248.534 322.24V327H249.528V316.976H248.52L244.866 325.81L241.212 316.976H240.218V327H241.212ZM253.698 327.168C254.846 327.168 255.77 326.664 256.19 325.81L256.316 327H257.128V322.618C257.128 320.826 255.98 320.042 254.412 320.042C252.746 320.042 251.626 320.924 251.626 322.296H252.508C252.508 321.386 253.208 320.854 254.384 320.854C255.378 320.854 256.176 321.274 256.176 322.604V322.828L253.936 323.01C252.354 323.136 251.402 323.92 251.402 325.166C251.402 326.356 252.256 327.168 253.698 327.168ZM253.922 326.384C252.998 326.384 252.382 325.964 252.382 325.138C252.382 324.382 252.9 323.822 254.174 323.71L256.176 323.556V323.92C256.176 325.39 255.35 326.384 253.922 326.384ZM258.23 329.954C258.538 330.024 258.846 330.052 259.252 330.052C260.218 330.052 260.876 329.618 261.268 328.554L264.376 320.224H263.382L261.24 326.132L259.056 320.224H258.034L260.778 327.406L260.484 328.204C260.148 329.114 259.56 329.156 258.972 329.156H258.23V329.954Z" fill="white"/>
<path d="M288.28 324.242C288.28 325.978 289.316 327.168 291.122 327.168C292.816 327.168 293.992 326.076 293.992 324.256V316.976H292.984V324.228C292.984 325.418 292.396 326.216 291.122 326.216C289.904 326.216 289.26 325.432 289.26 324.242V323.85H288.28V324.242ZM300.905 320.224V323.822C300.905 325.432 300.135 326.3 298.833 326.3C297.755 326.3 297.041 325.726 297.041 324.116V320.21H296.061V324.424C296.061 326.076 296.929 327.168 298.525 327.168C299.589 327.168 300.527 326.636 300.905 325.852L301.031 327H301.871V320.224H300.905ZM304.849 327V323.458C304.849 321.932 305.633 320.924 307.019 320.924C308.139 320.924 308.853 321.484 308.853 323.066V327H309.819V322.856C309.819 321.148 309.049 320.042 307.187 320.042C306.207 320.042 305.311 320.532 304.863 321.4L304.723 320.224H303.883V327H304.849Z" fill="white"/>
<path d="M7.238 262V261.062H2.184L4.522 259.018C6.524 257.268 7.182 256.302 7.182 254.846C7.182 253.012 5.922 251.794 4.032 251.794C2.058 251.794 0.728 253.18 0.672 255.28H1.68C1.722 253.726 2.632 252.718 4.018 252.718C5.348 252.718 6.16 253.544 6.16 254.902C6.16 256.092 5.684 256.792 3.836 258.402L0.63 261.202V262H7.238ZM8.63133 256.988C8.63133 260.11 10.1293 262.182 12.6493 262.182C15.1553 262.182 16.6533 260.11 16.6533 256.988C16.6533 253.88 15.1273 251.78 12.6493 251.78C10.1573 251.78 8.63133 253.88 8.63133 256.988ZM9.62533 256.988C9.62533 254.37 10.7313 252.704 12.6493 252.704C14.5673 252.704 15.6733 254.37 15.6733 256.988C15.6733 259.592 14.5673 261.272 12.6493 261.272C10.7313 261.272 9.62533 259.592 9.62533 256.988Z" fill="white"/>
<path d="M7.98 220.872V219.976H6.804V212.976H5.46L0.56 219.976V220.872H5.824V223H6.804V220.872H7.98ZM1.652 219.976L5.824 214.012V219.976H1.652ZM9.54734 217.988C9.54734 221.11 11.0453 223.182 13.5653 223.182C16.0713 223.182 17.5693 221.11 17.5693 217.988C17.5693 214.88 16.0433 212.78 13.5653 212.78C11.0733 212.78 9.54734 214.88 9.54734 217.988ZM10.5413 217.988C10.5413 215.37 11.6473 213.704 13.5653 213.704C15.4833 213.704 16.5893 215.37 16.5893 217.988C16.5893 220.592 15.4833 222.272 13.5653 222.272C11.6473 222.272 10.5413 220.592 10.5413 217.988Z" fill="white"/>
<path d="M1.904 177.35C0.966 178.638 0.644 179.45 0.644 180.612C0.644 182.614 2.226 184.168 4.242 184.168C6.244 184.168 7.798 182.67 7.798 180.612C7.798 178.652 6.412 177.126 4.326 177.126C3.864 177.126 3.43 177.224 2.954 177.462L5.586 173.976H4.41L1.904 177.35ZM1.666 180.626C1.666 179.1 2.716 178.008 4.242 178.008C5.726 178.008 6.79 179.1 6.79 180.626C6.79 182.152 5.726 183.258 4.242 183.258C2.716 183.258 1.666 182.152 1.666 180.626ZM9.20555 178.988C9.20555 182.11 10.7035 184.182 13.2235 184.182C15.7295 184.182 17.2275 182.11 17.2275 178.988C17.2275 175.88 15.7015 173.78 13.2235 173.78C10.7315 173.78 9.20555 175.88 9.20555 178.988ZM10.1995 178.988C10.1995 176.37 11.3055 174.704 13.2235 174.704C15.1415 174.704 16.2475 176.37 16.2475 178.988C16.2475 181.592 15.1415 183.272 13.2235 183.272C11.3055 183.272 10.1995 181.592 10.1995 178.988Z" fill="white"/>
<path d="M0.714 142.27C0.714 143.992 2.156 145.168 4.284 145.168C6.412 145.168 7.854 143.992 7.854 142.284C7.854 141.024 7.084 140.016 5.922 139.652C6.916 139.274 7.476 138.448 7.476 137.398C7.476 135.844 6.202 134.794 4.298 134.794C2.38 134.794 1.064 135.844 1.064 137.384C1.064 138.42 1.638 139.246 2.646 139.652C1.456 140.058 0.714 141.038 0.714 142.27ZM2.016 137.412C2.016 136.362 2.912 135.69 4.284 135.69C5.642 135.69 6.524 136.362 6.524 137.44C6.524 138.546 5.642 139.26 4.284 139.26C2.912 139.26 2.016 138.518 2.016 137.412ZM1.708 142.186C1.708 140.954 2.716 140.156 4.27 140.156C5.852 140.156 6.86 140.954 6.86 142.186C6.86 143.432 5.824 144.258 4.298 144.258C2.744 144.258 1.708 143.432 1.708 142.186ZM9.34227 139.988C9.34227 143.11 10.8403 145.182 13.3603 145.182C15.8663 145.182 17.3643 143.11 17.3643 139.988C17.3643 136.88 15.8383 134.78 13.3603 134.78C10.8683 134.78 9.34227 136.88 9.34227 139.988ZM10.3363 139.988C10.3363 137.37 11.4423 135.704 13.3603 135.704C15.2783 135.704 16.3843 137.37 16.3843 139.988C16.3843 142.592 15.2783 144.272 13.3603 144.272C11.4423 144.272 10.3363 142.592 10.3363 139.988Z" fill="white"/>
<path d="M2.534 96.886V106H3.5V95.976H0.49V96.886H2.534ZM5.44578 100.988C5.44578 104.11 6.94378 106.182 9.46378 106.182C11.9698 106.182 13.4678 104.11 13.4678 100.988C13.4678 97.88 11.9418 95.78 9.46378 95.78C6.97178 95.78 5.44578 97.88 5.44578 100.988ZM6.43978 100.988C6.43978 98.37 7.54578 96.704 9.46378 96.704C11.3818 96.704 12.4878 98.37 12.4878 100.988C12.4878 103.592 11.3818 105.272 9.46378 105.272C7.54578 105.272 6.43978 103.592 6.43978 100.988ZM15.0024 100.988C15.0024 104.11 16.5004 106.182 19.0204 106.182C21.5264 106.182 23.0244 104.11 23.0244 100.988C23.0244 97.88 21.4984 95.78 19.0204 95.78C16.5284 95.78 15.0024 97.88 15.0024 100.988ZM15.9964 100.988C15.9964 98.37 17.1024 96.704 19.0204 96.704C20.9384 96.704 22.0444 98.37 22.0444 100.988C22.0444 103.592 20.9384 105.272 19.0204 105.272C17.1024 105.272 15.9964 103.592 15.9964 100.988Z" fill="white"/>
<rect x="39" y="215" width="14" height="87" rx="3" fill="#36DFAE"/>
<rect x="55" y="230" width="14" height="72" rx="3" fill="#33A1AA"/>
<rect x="88" y="198" width="14" height="104" rx="3" fill="#36DFAE"/>
<rect x="137" y="160" width="14" height="142" rx="3" fill="#36DFAE"/>
<rect x="186" y="215" width="14" height="87" rx="3" fill="#36DFAE"/>
<rect x="235" y="149" width="14" height="153" rx="3" fill="#36DFAE"/>
<rect x="284" y="122" width="14" height="180" rx="3" fill="#36DFAE"/>
<rect x="104" y="253" width="14" height="49" rx="3" fill="#33A1AA"/>
<rect x="153" y="188" width="14" height="114" rx="3" fill="#33A1AA"/>
<rect x="202" y="254" width="14" height="48" rx="3" fill="#33A1AA"/>
<rect x="251" y="223" width="14" height="79" rx="3" fill="#33A1AA"/>
<rect x="300" y="160" width="14" height="142" rx="3" fill="#33A1AA"/>
</svg>
