<svg width="302" height="345" viewBox="0 0 302 345" fill="none" xmlns="http://www.w3.org/2000/svg">
<rect x="216" width="86" height="30" rx="5" fill="white"/>
<path d="M234.262 21H236.026L238.252 13.552L240.436 21H242.172L245.28 10.766H243.46L241.808 16.184C241.654 16.702 241.514 17.248 241.318 18.2C241.15 17.332 240.996 16.744 240.828 16.17L239.246 10.766H237.272L235.662 16.17C235.48 16.758 235.326 17.29 235.158 18.2C235.004 17.304 234.85 16.73 234.696 16.17L233.072 10.766H231.21L234.262 21ZM248.47 21.182C250.276 21.182 251.536 20.272 251.83 18.76H250.248C250.052 19.418 249.436 19.782 248.498 19.782C247.364 19.782 246.72 19.166 246.594 17.948L251.802 17.934V17.416C251.802 15.26 250.486 13.874 248.414 13.874C246.384 13.874 244.97 15.372 244.97 17.542C244.97 19.684 246.412 21.182 248.47 21.182ZM248.428 15.274C249.45 15.274 250.108 15.904 250.108 16.856H246.636C246.804 15.82 247.42 15.274 248.428 15.274ZM256.263 21.182C258.069 21.182 259.329 20.272 259.623 18.76H258.041C257.845 19.418 257.229 19.782 256.291 19.782C255.157 19.782 254.513 19.166 254.387 17.948L259.595 17.934V17.416C259.595 15.26 258.279 13.874 256.207 13.874C254.177 13.874 252.763 15.372 252.763 17.542C252.763 19.684 254.205 21.182 256.263 21.182ZM256.221 15.274C257.243 15.274 257.901 15.904 257.901 16.856H254.429C254.597 15.82 255.213 15.274 256.221 15.274ZM262.684 21V19.138L263.692 18.088L265.498 21H267.458L264.882 16.828L267.514 14.084H265.372L262.684 16.982V10.584H260.99V21H262.684Z" fill="#1D555C"/>
<path d="M278 13L283.001 18L288 13" stroke="#36DFAE" stroke-width="2" stroke-linejoin="round"/>
<path d="M0.374 7.514H5.082V21H7.898V7.514H12.606V4.918H0.374V7.514ZM19.872 10.088C19.432 9.978 19.058 9.934 18.684 9.934C17.232 9.934 16.198 10.66 15.736 11.738L15.582 10.154H13.052V21H15.736V15.72C15.736 13.608 16.946 12.574 18.882 12.574H19.872V10.088ZM26.1855 21.286C29.0235 21.286 31.0035 19.856 31.4655 17.48H28.9795C28.6715 18.514 27.7035 19.086 26.2295 19.086C24.4475 19.086 23.4355 18.118 23.2375 16.204L31.4215 16.182V15.368C31.4215 11.98 29.3535 9.802 26.0975 9.802C22.9075 9.802 20.6855 12.156 20.6855 15.566C20.6855 18.932 22.9515 21.286 26.1855 21.286ZM26.1195 12.002C27.7255 12.002 28.7595 12.992 28.7595 14.488H23.3035C23.5675 12.86 24.5355 12.002 26.1195 12.002ZM36.6962 21.286C38.3902 21.286 39.8642 20.516 40.3262 19.394L40.5242 21H42.8782V14.4C42.8782 11.386 41.0742 9.802 38.1482 9.802C35.2002 9.802 33.2642 11.342 33.2642 13.696H35.5522C35.5522 12.552 36.4322 11.892 38.0162 11.892C39.3802 11.892 40.2602 12.486 40.2602 13.96V14.202L37.0042 14.444C34.4302 14.642 32.9782 15.896 32.9782 17.898C32.9782 19.944 34.3862 21.286 36.6962 21.286ZM37.5762 19.262C36.3662 19.262 35.7062 18.778 35.7062 17.788C35.7062 16.908 36.3442 16.358 38.0162 16.204L40.2822 16.028V16.6C40.2822 18.272 39.2262 19.262 37.5762 19.262ZM44.6789 17.7C44.6789 19.834 46.3949 21.286 49.1009 21.286C51.7849 21.286 53.6549 19.922 53.6549 17.722C53.6549 16.05 52.7309 15.214 50.9049 14.796L48.9469 14.334C48.0229 14.114 47.5389 13.718 47.5389 13.102C47.5389 12.288 48.1549 11.804 49.2109 11.804C50.2449 11.804 50.8609 12.398 50.8829 13.322H53.4349C53.4129 11.21 51.7629 9.802 49.3209 9.802C46.8129 9.802 45.0089 11.078 45.0089 13.212C45.0089 14.95 45.9549 15.874 47.9129 16.314L49.8709 16.776C50.8389 16.996 51.1249 17.392 51.1249 17.942C51.1249 18.734 50.4429 19.24 49.1889 19.24C47.9569 19.24 47.2529 18.646 47.2309 17.7H44.6789ZM63.0685 10.132V15.83C63.0685 17.898 62.2545 18.888 60.5605 18.888C59.0645 18.888 58.2505 18.052 58.2505 15.984V10.132H55.5665V16.93C55.5665 19.592 57.0405 21.286 59.5485 21.286C61.0005 21.286 62.4085 20.582 63.0685 19.548L63.2665 21H65.7525V10.132H63.0685ZM75.3447 10.088C74.9047 9.978 74.5307 9.934 74.1567 9.934C72.7047 9.934 71.6707 10.66 71.2087 11.738L71.0547 10.154H68.5247V21H71.2087V15.72C71.2087 13.608 72.4187 12.574 74.3547 12.574H75.3447V10.088ZM76.5377 26.038C77.1317 26.192 77.7917 26.28 78.5397 26.28C80.3217 26.28 81.4657 25.444 82.2797 23.42L87.6037 10.132H84.8317L81.8837 18.052L79.0897 10.132H76.2517L80.6297 21.462L80.3217 22.276C79.8597 23.552 79.1997 23.794 78.1437 23.794H76.5377V26.038Z" fill="white"/>
<path d="M199.052 336.715V335.805H194.95V332.025H199.85V331.101H193.942V341.125H194.95V336.715H199.052Z" fill="white"/>
<path d="M234.07 333.705C234.07 335.077 234.896 335.973 236.464 336.351L238.158 336.771C239.236 337.023 239.74 337.611 239.74 338.507C239.74 339.655 238.802 340.369 237.332 340.369C235.96 340.369 235.036 339.683 234.98 338.633H233.944C234.07 340.271 235.386 341.293 237.332 341.293C239.404 341.293 240.748 340.187 240.748 338.451C240.748 337.093 239.936 336.197 238.368 335.819L236.646 335.399C235.596 335.133 235.078 334.573 235.078 333.691C235.078 332.557 236.002 331.829 237.416 331.829C238.676 331.829 239.446 332.473 239.558 333.607H240.58C240.426 331.927 239.236 330.919 237.43 330.919C235.414 330.919 234.07 332.025 234.07 333.705Z" fill="white"/>
<path d="M274.8 333.705C274.8 335.077 275.626 335.973 277.194 336.351L278.888 336.771C279.966 337.023 280.47 337.611 280.47 338.507C280.47 339.655 279.532 340.369 278.062 340.369C276.69 340.369 275.766 339.683 275.71 338.633H274.674C274.8 340.271 276.116 341.293 278.062 341.293C280.134 341.293 281.478 340.187 281.478 338.451C281.478 337.093 280.666 336.197 279.098 335.819L277.376 335.399C276.326 335.133 275.808 334.573 275.808 333.691C275.808 332.557 276.732 331.829 278.146 331.829C279.406 331.829 280.176 332.473 280.288 333.607H281.31C281.156 331.927 279.966 330.919 278.16 330.919C276.144 330.919 274.8 332.025 274.8 333.705Z" fill="white"/>
<path d="M32.0147 341.125V336.211C32.0147 334.685 31.9867 333.579 31.9307 333.201L35.1927 341.125H36.1587L39.4207 333.159C39.3647 333.845 39.3367 334.615 39.3367 336.365V341.125H40.3307V331.101H39.3227L35.6687 339.935L32.0147 331.101H31.0207V341.125H32.0147Z" fill="white"/>
<path d="M70.701 332.025H73.781V341.125H74.789V332.025H77.883V331.101H70.701V332.025Z" fill="white"/>
<path d="M114.455 341.125H115.421L118.109 332.613L120.797 341.125H121.749L124.759 331.101H123.737L121.665 338.003C121.553 338.381 121.427 338.871 121.273 339.641C121.119 338.997 120.979 338.493 120.825 337.989L118.641 331.101H117.591L115.407 337.989C115.253 338.479 115.113 338.913 114.945 339.641C114.819 338.983 114.693 338.479 114.553 337.989L112.523 331.101H111.473L114.455 341.125Z" fill="white"/>
<path d="M152.161 332.025H155.241V341.125H156.249V332.025H159.343V331.101H152.161V332.025Z" fill="white"/>
<path d="M0.77 306.311C0.77 309.433 2.268 311.505 4.788 311.505C7.294 311.505 8.792 309.433 8.792 306.311C8.792 303.203 7.266 301.103 4.788 301.103C2.296 301.103 0.77 303.203 0.77 306.311ZM1.764 306.311C1.764 303.693 2.87 302.027 4.788 302.027C6.706 302.027 7.812 303.693 7.812 306.311C7.812 308.915 6.706 310.595 4.788 310.595C2.87 310.595 1.764 308.915 1.764 306.311Z" fill="white"/>
<path d="M7.238 272.579V271.641H2.184L4.522 269.597C6.524 267.847 7.182 266.881 7.182 265.425C7.182 263.591 5.922 262.373 4.032 262.373C2.058 262.373 0.728 263.759 0.672 265.859H1.68C1.722 264.305 2.632 263.297 4.018 263.297C5.348 263.297 6.16 264.123 6.16 265.481C6.16 266.671 5.684 267.371 3.836 268.981L0.63 271.781V272.579H7.238ZM8.63133 267.567C8.63133 270.689 10.1293 272.761 12.6493 272.761C15.1553 272.761 16.6533 270.689 16.6533 267.567C16.6533 264.459 15.1273 262.359 12.6493 262.359C10.1573 262.359 8.63133 264.459 8.63133 267.567ZM9.62533 267.567C9.62533 264.949 10.7313 263.283 12.6493 263.283C14.5673 263.283 15.6733 264.949 15.6733 267.567C15.6733 270.171 14.5673 271.851 12.6493 271.851C10.7313 271.851 9.62533 270.171 9.62533 267.567Z" fill="white"/>
<path d="M7.98 231.708V230.812H6.804V223.812H5.46L0.56 230.812V231.708H5.824V233.836H6.804V231.708H7.98ZM1.652 230.812L5.824 224.848V230.812H1.652ZM9.54734 228.824C9.54734 231.946 11.0453 234.018 13.5653 234.018C16.0713 234.018 17.5693 231.946 17.5693 228.824C17.5693 225.716 16.0433 223.616 13.5653 223.616C11.0733 223.616 9.54734 225.716 9.54734 228.824ZM10.5413 228.824C10.5413 226.206 11.6473 224.54 13.5653 224.54C15.4833 224.54 16.5893 226.206 16.5893 228.824C16.5893 231.428 15.4833 233.108 13.5653 233.108C11.6473 233.108 10.5413 231.428 10.5413 228.824Z" fill="white"/>
<path d="M1.904 188.442C0.966 189.73 0.644 190.542 0.644 191.704C0.644 193.706 2.226 195.26 4.242 195.26C6.244 195.26 7.798 193.762 7.798 191.704C7.798 189.744 6.412 188.218 4.326 188.218C3.864 188.218 3.43 188.316 2.954 188.554L5.586 185.068H4.41L1.904 188.442ZM1.666 191.718C1.666 190.192 2.716 189.1 4.242 189.1C5.726 189.1 6.79 190.192 6.79 191.718C6.79 193.244 5.726 194.35 4.242 194.35C2.716 194.35 1.666 193.244 1.666 191.718ZM0.77 209.08C0.77 212.202 2.268 214.274 4.788 214.274C7.294 214.274 8.792 212.202 8.792 209.08C8.792 205.972 7.266 203.872 4.788 203.872C2.296 203.872 0.77 205.972 0.77 209.08ZM1.764 209.08C1.764 206.462 2.87 204.796 4.788 204.796C6.706 204.796 7.812 206.462 7.812 209.08C7.812 211.684 6.706 213.364 4.788 213.364C2.87 213.364 1.764 211.684 1.764 209.08Z" fill="white"/>
<path d="M0.714 153.619C0.714 155.341 2.156 156.517 4.284 156.517C6.412 156.517 7.854 155.341 7.854 153.633C7.854 152.373 7.084 151.365 5.922 151.001C6.916 150.623 7.476 149.797 7.476 148.747C7.476 147.193 6.202 146.143 4.298 146.143C2.38 146.143 1.064 147.193 1.064 148.733C1.064 149.769 1.638 150.595 2.646 151.001C1.456 151.407 0.714 152.387 0.714 153.619ZM2.016 148.761C2.016 147.711 2.912 147.039 4.284 147.039C5.642 147.039 6.524 147.711 6.524 148.789C6.524 149.895 5.642 150.609 4.284 150.609C2.912 150.609 2.016 149.867 2.016 148.761ZM1.708 153.535C1.708 152.303 2.716 151.505 4.27 151.505C5.852 151.505 6.86 152.303 6.86 153.535C6.86 154.781 5.824 155.607 4.298 155.607C2.744 155.607 1.708 154.781 1.708 153.535ZM9.34227 151.337C9.34227 154.459 10.8403 156.531 13.3603 156.531C15.8663 156.531 17.3643 154.459 17.3643 151.337C17.3643 148.229 15.8383 146.129 13.3603 146.129C10.8683 146.129 9.34227 148.229 9.34227 151.337ZM10.3363 151.337C10.3363 148.719 11.4423 147.053 13.3603 147.053C15.2783 147.053 16.3843 148.719 16.3843 151.337C16.3843 153.941 15.2783 155.621 13.3603 155.621C11.4423 155.621 10.3363 153.941 10.3363 151.337Z" fill="white"/>
<path d="M2.534 108.491V117.605H3.5V107.581H0.49V108.491H2.534ZM5.44578 112.593C5.44578 115.715 6.94378 117.787 9.46378 117.787C11.9698 117.787 13.4678 115.715 13.4678 112.593C13.4678 109.485 11.9418 107.385 9.46378 107.385C6.97178 107.385 5.44578 109.485 5.44578 112.593ZM6.43978 112.593C6.43978 109.975 7.54578 108.309 9.46378 108.309C11.3818 108.309 12.4878 109.975 12.4878 112.593C12.4878 115.197 11.3818 116.877 9.46378 116.877C7.54578 116.877 6.43978 115.197 6.43978 112.593ZM15.0024 112.593C15.0024 115.715 16.5004 117.787 19.0204 117.787C21.5264 117.787 23.0244 115.715 23.0244 112.593C23.0244 109.485 21.4984 107.385 19.0204 107.385C16.5284 107.385 15.0024 109.485 15.0024 112.593ZM15.9964 112.593C15.9964 109.975 17.1024 108.309 19.0204 108.309C20.9384 108.309 22.0444 109.975 22.0444 112.593C22.0444 115.197 20.9384 116.877 19.0204 116.877C17.1024 116.877 15.9964 115.197 15.9964 112.593Z" fill="white"/>
<path d="M31.7896 306.135C35.6591 298.644 48.0418 288.156 66.6159 306.135C89.8334 328.608 124.049 317.372 145.739 267.182C167.429 216.992 167.734 187.777 191.868 185.53C216.002 183.282 233.721 269.429 255.106 247.705C276.49 225.981 274.352 153.318 300.013 144.329" stroke="#FBB0B3" stroke-width="3"/>
<path d="M31.7896 307.25C34.953 301.446 44.0771 289.21 55.2659 286.698C69.2517 283.558 74.4132 296.403 86.0681 295.547C102.052 294.372 109.877 288.982 118.868 254.728C122.315 241.598 123.917 219.257 137.644 213.826C149.184 209.259 157.442 224.769 163.269 239.897C169.097 255.026 183.977 269.129 197.131 259.995C213.187 248.845 213.773 234.462 223.596 202.492C233.419 170.522 253.066 163.386 266.719 165.955C280.372 168.524 291.194 173.662 299.02 156.25" stroke="#36DFAE" stroke-width="3"/>
<path d="M154.148 15.514C154.148 17.796 155.548 19.168 157.872 19.168C160.154 19.168 161.554 17.782 161.554 15.514V8.976H160.546V15.472C160.546 17.208 159.58 18.188 157.872 18.188C156.122 18.188 155.156 17.236 155.156 15.472V8.976H154.148V15.514ZM163.323 11.58C163.323 12.952 164.149 13.848 165.717 14.226L167.411 14.646C168.489 14.898 168.993 15.486 168.993 16.382C168.993 17.53 168.055 18.244 166.585 18.244C165.213 18.244 164.289 17.558 164.233 16.508H163.197C163.323 18.146 164.639 19.168 166.585 19.168C168.657 19.168 170.001 18.062 170.001 16.326C170.001 14.968 169.189 14.072 167.621 13.694L165.899 13.274C164.849 13.008 164.331 12.448 164.331 11.566C164.331 10.432 165.255 9.704 166.669 9.704C167.929 9.704 168.699 10.348 168.811 11.482H169.833C169.679 9.802 168.489 8.794 166.683 8.794C164.667 8.794 163.323 9.9 163.323 11.58ZM174.866 19C177.876 19 179.878 16.984 179.878 13.988C179.878 10.992 177.862 8.976 174.838 8.976H171.814V19H174.866ZM174.796 9.9C177.274 9.9 178.842 11.482 178.842 13.988C178.842 16.48 177.274 18.076 174.824 18.076H172.822V9.9H174.796ZM185.786 19.154C187.942 19.154 189.692 17.88 190.154 15.99H189.076C188.642 17.334 187.382 18.188 185.8 18.188C183.602 18.188 182.132 16.508 182.132 13.988C182.132 11.454 183.602 9.774 185.8 9.774C187.368 9.774 188.6 10.656 189.02 12.098H190.098C189.692 10.11 187.998 8.808 185.842 8.808C183.014 8.808 181.082 10.908 181.082 13.988C181.082 17.068 182.986 19.154 185.786 19.154Z" fill="white"/>
<circle cx="135.5" cy="14.5" r="7.5" fill="#36DFAE"/>
<path d="M160.224 48V47.076H155.226V43.422H159.748V42.512H155.226V38.9H160.21V37.976H154.218V48H160.224ZM161.221 38.9H164.301V48H165.309V38.9H168.403V37.976H161.221V38.9ZM170.798 48V43.38H176.216V48H177.21V37.976H176.216V42.442H170.798V37.976H169.79V48H170.798Z" fill="white"/>
<circle cx="135.5" cy="43.5" r="7.5" fill="#FBB0B3"/>
</svg>
