<svg width="18" height="19" viewBox="0 0 18 19" fill="none" xmlns="http://www.w3.org/2000/svg">
    <path
        d="M10.4535 12.5983C10.3796 12.5245 10.2636 12.5245 10.1898 12.5983L7.46477 15.3233C6.20247 16.5856 4.07521 16.7192 2.68282 15.3233C1.28691 13.9274 1.42052 11.8037 2.68282 10.5414L5.40782 7.81638C5.48166 7.74254 5.48166 7.62299 5.40782 7.55267L4.47605 6.62089C4.40221 6.54705 4.28618 6.54705 4.21234 6.62089L1.48733 9.3459C-0.495776 11.329 -0.495776 14.5392 1.48733 16.5188C3.47043 18.4984 6.68067 18.5019 8.66025 16.5188L11.3853 13.7938C11.4591 13.72 11.4591 13.6004 11.3853 13.5301L10.4535 12.5983ZM16.5153 1.48733C14.5322 -0.495776 11.322 -0.495776 9.34238 1.48733L6.61738 4.21234C6.54354 4.28618 6.54354 4.40221 6.61738 4.47605L7.54915 5.40782C7.62299 5.48166 7.74254 5.48166 7.81286 5.40782L10.5379 2.68282C11.8002 1.42052 13.9274 1.28691 15.3198 2.68282C16.7157 4.07872 16.5821 6.20247 15.3198 7.46477L12.5948 10.1898C12.521 10.2636 12.521 10.3796 12.5948 10.4535L13.5266 11.3853C13.6004 11.4591 13.72 11.4591 13.7903 11.3853L16.5153 8.66025C18.4949 6.68067 18.4949 3.47043 16.5153 1.48733ZM11.2974 5.72779C11.2235 5.65395 11.1075 5.65395 11.0336 5.72779L5.72428 11.0336C5.65044 11.1075 5.65044 11.2235 5.72428 11.2974L6.65254 12.2256C6.72638 12.2995 6.84592 12.2995 6.91625 12.2256L12.2221 6.91976C12.2959 6.84593 12.2959 6.72638 12.2221 6.65605L11.2974 5.72779Z"
        fill="#1D555C" />
</svg>