<svg width="16" height="14" viewBox="0 0 16 14" fill="none" xmlns="http://www.w3.org/2000/svg">
    <g clip-path="url(#clip0_2019_20105)">
        <path fill-rule="evenodd" clip-rule="evenodd"
            d="M7.89313 4.30557C7.25293 0.690957 11.2948 -1.45424 13.665 1.15157C13.665 1.15157 14.7316 0.832601 15.6679 0.180608C15.6679 0.180608 15.3237 1.41972 14.1747 2.19822C14.1747 2.19822 15.4551 2.01981 16 1.64894C16 1.64894 15.4551 2.88805 14.4356 3.34758C14.9805 11.6235 6.70806 16.6545 0 12.5295C0 12.5295 3.30637 12.7209 4.71722 10.9844C4.71722 10.9844 2.67821 11.1628 1.65971 8.5073C1.65971 8.5073 2.41831 8.82627 3.18896 8.41756C3.18896 8.41756 0.806773 8.00884 0.593039 4.94351C0.593039 4.94351 1.36369 5.58252 2.20458 5.35222C2.20458 5.35222 -0.426466 3.66655 1.05463 0.601213C1.05463 0.601213 3.86328 4.44505 7.89313 4.30449V4.30557Z"
            fill="#1D555C" />
    </g>
    <defs>
        <clipPath id="clip0_2019_20105">
            <rect width="16" height="14" fill="white" />
        </clipPath>
    </defs>
</svg>