<svg width="525" height="494" viewBox="0 0 525 494" fill="none" xmlns="http://www.w3.org/2000/svg">
<g clip-path="url(#clip0_2019_17660)">
<path d="M262.044 239.879C289.663 210.202 329.047 191.637 372.797 191.637C384.463 191.637 395.797 193.007 406.7 195.491C410.986 181.484 413.316 166.616 413.316 151.181C413.316 67.6873 345.588 0 262.044 0C178.499 0 110.752 67.6873 110.752 151.181C110.752 166.597 113.081 181.465 117.368 195.491C128.271 192.987 139.605 191.637 151.271 191.637C195.02 191.637 234.404 210.222 262.024 239.879H262.044Z" fill="#36DFAE"/>
<path d="M406.701 195.491C391.002 246.785 348.741 286.439 295.948 298.529C300.235 312.535 302.564 327.403 302.564 342.838C302.564 382.609 287.179 418.781 262.045 445.778C289.665 475.455 329.049 494.02 372.798 494.02C456.342 494.02 524.07 426.332 524.07 342.838C524.07 271.004 473.92 210.907 406.701 195.511V195.491Z" fill="#CCD7FF"/>
<path d="M262.045 239.879C277.431 256.41 289.175 276.383 295.948 298.509C348.741 286.419 391.002 246.765 406.701 195.472C395.798 192.968 384.464 191.618 372.798 191.618C329.049 191.618 289.665 210.202 262.045 239.86V239.879Z" fill="#33A1AA"/>
<path d="M228.122 298.529C175.329 286.439 133.068 246.785 117.369 195.491C50.15 210.887 0 270.984 0 342.819C0 426.313 67.728 494 151.272 494C195.021 494 234.405 475.415 262.025 445.758C236.891 418.762 221.506 382.59 221.506 342.819C221.506 327.403 223.835 312.535 228.122 298.509V298.529Z" fill="#FBB0B3"/>
<path d="M228.122 298.528C234.895 276.383 246.639 256.429 262.025 239.899C234.405 210.222 195.021 191.657 151.272 191.657C139.606 191.657 128.272 193.026 117.369 195.511C133.068 246.804 175.329 286.458 228.122 298.548V298.528Z" fill="#33A1AA"/>
<path d="M295.948 298.528C285.045 301.032 273.711 302.382 262.045 302.382C250.378 302.382 239.045 301.013 228.142 298.528C223.855 312.535 221.525 327.403 221.525 342.838C221.525 382.609 236.911 418.781 262.045 445.778C287.178 418.781 302.564 382.609 302.564 342.838C302.564 327.423 300.235 312.555 295.948 298.528Z" fill="#33A1AA"/>
<path d="M228.121 298.529C239.024 301.033 250.358 302.383 262.024 302.383C273.691 302.383 285.024 301.013 295.927 298.529C289.155 276.384 277.41 256.429 262.024 239.899C246.639 256.429 234.894 276.403 228.121 298.529Z" fill="#1D555C"/>
<path d="M224.134 150.278V141.03H236.742V150.278H240.166V128.838H236.742V137.926H224.134V128.838H220.678V150.278H224.134ZM251.397 150.598C256.133 150.598 259.461 148.262 259.461 144.87V144.582H256.005V144.838C256.005 146.726 254.629 147.814 251.301 147.814C247.621 147.814 246.117 146.182 245.989 143.11H259.493C259.589 142.63 259.621 142.182 259.621 141.606C259.621 136.774 256.261 134.054 251.333 134.054C246.149 134.054 242.757 137.382 242.757 142.342C242.757 147.654 246.181 150.598 251.397 150.598ZM251.269 136.774C254.661 136.774 256.357 138.182 256.357 141.126V141.19H246.021C246.213 138.342 247.749 136.774 251.269 136.774ZM266.881 150.598C270.497 150.598 273.025 148.998 273.857 146.31H274.081V150.278H277.249V140.614C277.249 136.806 274.977 134.054 269.921 134.054C264.865 134.054 261.857 136.774 261.857 140.39V140.518H265.281V140.39C265.281 138.054 266.721 137.094 269.665 137.094C272.705 137.094 273.857 138.022 273.857 140.646V141.574L266.625 142.342C263.489 142.694 261.505 143.974 261.505 146.438C261.505 149.062 263.585 150.598 266.881 150.598ZM264.961 146.214C264.961 144.966 265.825 144.55 267.617 144.326L273.857 143.622C273.857 146.758 271.425 148.102 267.809 148.102C265.825 148.102 264.961 147.494 264.961 146.214ZM287.342 150.598C290.926 150.598 293.262 148.87 293.934 145.702H294.158V150.278H297.326V128.838H293.87V138.694H293.678C293.038 136.006 290.894 134.054 287.118 134.054C282.286 134.054 279.534 137.382 279.534 142.342C279.534 147.238 282.318 150.598 287.342 150.598ZM283.022 142.342C283.022 138.502 285.006 137.19 288.334 137.19C291.886 137.19 293.87 138.854 293.87 142.246V142.502C293.87 145.83 291.79 147.43 288.398 147.43C284.974 147.43 283.022 146.15 283.022 142.342Z" fill="white"/>
<path d="M345.486 353.248V344H358.094V353.248H361.518V331.808H358.094V340.896H345.486V331.808H342.03V353.248H345.486ZM369.42 353.568C373.036 353.568 375.564 351.968 376.396 349.28H376.62V353.248H379.788V343.584C379.788 339.776 377.516 337.024 372.46 337.024C367.404 337.024 364.396 339.744 364.396 343.36V343.488H367.82V343.36C367.82 341.024 369.26 340.064 372.204 340.064C375.244 340.064 376.396 340.992 376.396 343.616V344.544L369.164 345.312C366.028 345.664 364.044 346.944 364.044 349.408C364.044 352.032 366.124 353.568 369.42 353.568ZM367.5 349.184C367.5 347.936 368.364 347.52 370.156 347.296L376.396 346.592C376.396 349.728 373.964 351.072 370.348 351.072C368.364 351.072 367.5 350.464 367.5 349.184ZM386.329 353.248V345.376C386.329 341.92 387.897 340.128 391.385 340.128C394.681 340.128 396.025 341.632 396.025 344.608V353.248H399.481V343.68C399.481 340 397.305 337.024 392.889 337.024C388.857 337.024 386.745 339.584 386.265 342.272H386.041V337.344H382.873V353.248H386.329ZM409.569 353.568C413.153 353.568 415.489 351.84 416.161 348.672H416.385V353.248H419.553V331.808H416.097V341.664H415.905C415.265 338.976 413.121 337.024 409.345 337.024C404.513 337.024 401.761 340.352 401.761 345.312C401.761 350.208 404.545 353.568 409.569 353.568ZM405.249 345.312C405.249 341.472 407.233 340.16 410.561 340.16C414.113 340.16 416.097 341.824 416.097 345.216V345.472C416.097 348.8 414.017 350.4 410.625 350.4C407.201 350.4 405.249 349.12 405.249 345.312Z" fill="white"/>
<path d="M99.1068 353.248V344H111.715V353.248H115.139V331.808H111.715V340.896H99.1068V331.808H95.6508V353.248H99.1068ZM126.37 353.568C131.106 353.568 134.434 351.232 134.434 347.84V347.552H130.978V347.808C130.978 349.696 129.602 350.784 126.274 350.784C122.594 350.784 121.09 349.152 120.962 346.08H134.466C134.562 345.6 134.594 345.152 134.594 344.576C134.594 339.744 131.234 337.024 126.306 337.024C121.122 337.024 117.73 340.352 117.73 345.312C117.73 350.624 121.154 353.568 126.37 353.568ZM126.242 339.744C129.634 339.744 131.33 341.152 131.33 344.096V344.16H120.994C121.186 341.312 122.722 339.744 126.242 339.744ZM141.854 353.568C145.47 353.568 147.998 351.968 148.83 349.28H149.054V353.248H152.222V343.584C152.222 339.776 149.95 337.024 144.894 337.024C139.838 337.024 136.83 339.744 136.83 343.36V343.488H140.254V343.36C140.254 341.024 141.694 340.064 144.638 340.064C147.678 340.064 148.83 340.992 148.83 343.616V344.544L141.598 345.312C138.462 345.664 136.478 346.944 136.478 349.408C136.478 352.032 138.558 353.568 141.854 353.568ZM139.934 349.184C139.934 347.936 140.798 347.52 142.59 347.296L148.83 346.592C148.83 349.728 146.398 351.072 142.782 351.072C140.798 351.072 139.934 350.464 139.934 349.184ZM158.763 353.248V344.32C158.763 341.472 159.883 339.968 162.603 339.968C164.971 339.968 165.931 341.024 165.931 343.296V344.704H169.355V342.624C169.355 339.616 167.787 337.024 164.171 337.024C160.907 337.024 159.179 339.072 158.699 341.632H158.475V337.344H155.307V353.248H158.763ZM181.958 353.248V350.144H179.078C177.094 350.144 176.198 349.632 176.198 347.68V340.224H181.958V337.344H176.198V333.856H172.774V337.344H170.086V340.224H172.774V347.872C172.774 351.744 174.886 353.248 178.31 353.248H181.958Z" fill="white"/>
<path d="M297.749 44.5535L296.112 68.312L276.449 55.2051L297.749 44.5535Z" fill="#33A1AA"/>
<path d="M463.9 398.208L466.034 417.958L447.968 410.074L463.9 398.208Z" fill="white"/>
<path d="M155.862 428.774L156.418 408.653L173.479 419.038L155.862 428.774Z" fill="white"/>
<path d="M177.013 109.738L185.496 117.456L174.669 120.965L177.013 109.738Z" fill="#FBB0B3"/>
<rect x="334.4" y="158.075" width="12.7207" height="12.7207" transform="rotate(-14.686 334.4 158.075)" fill="#CCD7FF"/>
<rect x="490.199" y="325.203" width="8.69136" height="8.69136" transform="rotate(-14.686 490.199 325.203)" fill="#33A1AA"/>
<rect x="133.986" y="299.25" width="8.29088" height="8.29088" transform="rotate(20.3714 133.986 299.25)" fill="#CCD7FF"/>
<circle cx="69.0237" cy="270.423" r="7.75937" transform="rotate(-22.2983 69.0237 270.423)" fill="#33A1AA"/>
<rect x="58.9004" y="266.188" width="9.19629" height="15.5187" transform="rotate(-22.2983 58.9004 266.188)" fill="#33A1AA"/>
<circle cx="340.462" cy="437.363" r="6.6894" transform="rotate(154.59 340.462 437.363)" fill="#FBB0B3"/>
<rect x="349.375" y="440.535" width="7.92818" height="13.3788" transform="rotate(154.59 349.375 440.535)" fill="#FBB0B3"/>
<ellipse cx="442.699" cy="280.25" rx="4.75" ry="4.75" fill="#36DFAE"/>
<ellipse cx="194.75" cy="225.15" rx="4.75" ry="4.75" fill="#36DFAE"/>
<circle cx="124.709" cy="462.5" r="3.5" fill="#33A1AA"/>
</g>
<defs>
<clipPath id="clip0_2019_17660">
<rect width="524.07" height="494" fill="white"/>
</clipPath>
</defs>
</svg>
