<svg width="21" height="21" viewBox="0 0 21 21" fill="none" xmlns="http://www.w3.org/2000/svg">
<path d="M16.625 0H4.375C3.21468 0 2.10188 0.460936 1.28141 1.28141C0.460936 2.10188 0 3.21468 0 4.375L0 16.625C0 17.1995 0.113163 17.7684 0.333027 18.2992C0.552891 18.83 0.875152 19.3123 1.28141 19.7186C2.10188 20.5391 3.21468 21 4.375 21H16.625C17.1995 21 17.7684 20.8868 18.2992 20.667C18.83 20.4471 19.3123 20.1248 19.7186 19.7186C20.1248 19.3123 20.4471 18.83 20.667 18.2992C20.8868 17.7684 21 17.1995 21 16.625V4.375C21 3.80047 20.8868 3.23156 20.667 2.70076C20.4471 2.16996 20.1248 1.68766 19.7186 1.28141C19.3123 0.875152 18.83 0.552891 18.2992 0.333027C17.7684 0.113163 17.1995 0 16.625 0ZM7 16.625H4.375V7H7V16.625ZM5.6875 5.8905C5.38171 5.89293 5.0821 5.80447 4.82667 5.63635C4.57123 5.46823 4.37149 5.22802 4.25279 4.94621C4.13408 4.66439 4.10176 4.35367 4.15993 4.05346C4.2181 3.75325 4.36412 3.47708 4.57949 3.25999C4.79486 3.0429 5.06986 2.89467 5.36959 2.83412C5.66933 2.77356 5.98031 2.8034 6.26306 2.91986C6.54581 3.03631 6.7876 3.23413 6.95775 3.48822C7.1279 3.7423 7.21874 4.0412 7.21875 4.347C7.21876 4.75425 7.05783 5.145 6.77101 5.43411C6.48419 5.72322 6.09474 5.88727 5.6875 5.8905ZM17.5 16.625H14.875V11.725C14.875 8.778 11.375 9.00112 11.375 11.725V16.625H8.75V7H11.375V8.54438C12.6 6.28163 17.5 6.1145 17.5 10.7109V16.625Z" fill="#1D555C"/>
</svg>
