<svg width="19" height="21" viewBox="0 0 19 21" fill="none" xmlns="http://www.w3.org/2000/svg">
<path fill-rule="evenodd" clip-rule="evenodd" d="M16.7743 0C18.0048 0 19 0.9625 19 2.16125V21L16.6657 19.005L15.3538 17.8325L13.9605 16.5813L14.5395 18.5238H2.22571C0.995238 18.5238 0 17.5613 0 16.3625V2.16125C0 0.9625 0.995238 0 2.22571 0H16.7743ZM12.5852 13.7113C14.9829 13.6412 15.9057 12.1188 15.9057 12.1188C15.9057 8.74125 14.3405 5.99375 14.3405 5.99375C12.7752 4.85625 11.2914 4.89125 11.2914 4.89125L11.1376 5.0575C12.9833 5.6 13.8429 6.3875 13.8429 6.3875C12.7119 5.7925 11.6081 5.495 10.5767 5.38125C9.79857 5.29375 9.04762 5.32 8.38714 5.39875L8.20619 5.41625C7.82619 5.45125 6.90333 5.5825 5.74524 6.08125C5.34714 6.25625 5.10286 6.3875 5.10286 6.3875C5.10286 6.3875 6.00762 5.55625 7.96191 5.01375L7.85333 4.89125C7.85333 4.89125 6.36952 4.85625 4.80429 5.99375C4.80429 5.99375 3.23905 8.7325 3.23905 12.1188C3.23905 12.1188 4.15286 13.6412 6.55048 13.7113C6.55048 13.7113 6.94857 13.2388 7.27429 12.8363C5.89905 12.4338 5.37429 11.5938 5.37429 11.5938L5.6819 11.7688L5.72714 11.8038L5.77238 11.83H5.78143L5.82667 11.8562C6.0981 12.005 6.36952 12.1187 6.62286 12.215C7.06619 12.3813 7.6 12.5475 8.21524 12.67C9.02952 12.8187 9.98857 12.8713 11.029 12.6788C11.5357 12.5912 12.0605 12.4513 12.6033 12.2238C12.9833 12.0837 13.4086 11.8913 13.8519 11.6025C13.8519 11.6025 13.309 12.46 11.8886 12.8537C12.2143 13.2562 12.6033 13.7025 12.6033 13.7025L12.5852 13.7113ZM7.53667 8.81125C6.92143 8.81125 6.43286 9.33625 6.43286 9.975C6.43286 10.6137 6.93048 11.1388 7.53667 11.1388C8.14286 11.1388 8.64048 10.6137 8.64048 9.975C8.64952 9.33625 8.15191 8.81125 7.53667 8.81125ZM11.4995 8.81125C10.8843 8.81125 10.3957 9.33625 10.3957 9.975C10.3957 10.6137 10.8933 11.1388 11.4995 11.1388C12.1057 11.1388 12.6033 10.6137 12.6033 9.975C12.6033 9.33625 12.1148 8.81125 11.4995 8.81125Z" fill="#1D555C"/>
</svg>
