<svg width="22" height="22" viewBox="0 0 22 22" fill="none" xmlns="http://www.w3.org/2000/svg">
    <path
        d="M21.4299 18.7454C22.19 19.5062 22.19 20.6897 21.4299 21.4505C21.0499 21.8309 20.5854 22 20.0787 22C19.572 22 19.1075 21.8309 18.7274 21.4505L11 13.7157L3.27255 21.4505C2.89252 21.8309 2.42802 22 1.92131 22C1.41459 22 0.950096 21.8309 0.570058 21.4505C-0.190019 20.6897 -0.190019 19.5062 0.570058 18.7454L8.29751 11.0106L0.570058 3.2757C-0.190019 2.51489 -0.190019 1.33141 0.570058 0.570605C1.33013 -0.190202 2.51248 -0.190202 3.27255 0.570605L11 8.30548L18.7274 0.570605C19.4875 -0.190202 20.6699 -0.190202 21.4299 0.570605C22.19 1.33141 22.19 2.51489 21.4299 3.2757L13.7025 11.0106L21.4299 18.7454Z"
        fill="#1D555C" />
</svg>