<svg width="25" height="21" viewBox="0 0 25 21" fill="none" xmlns="http://www.w3.org/2000/svg">
<path opacity="0.2" d="M19.3182 11.2066V19.0874C19.3182 19.5036 19.1832 19.8888 18.9553 20.1988C18.6213 20.653 18.0892 20.9468 17.4891 20.9468H1.82981C1.22902 20.9468 0.69609 20.653 0.362913 20.1988C0.338516 20.1655 0.314881 20.1314 0.292771 20.0958C0.101234 19.7955 -0.000469249 19.4452 1.6277e-06 19.0874V3.16832C1.6277e-06 2.14059 0.81884 1.30902 1.82981 1.30902H17.4891C18.1646 1.30902 18.7548 1.68105 19.0712 2.23522L16.5536 4.79517L10.9819 10.4601L6.92353 6.33452C6.20686 5.60597 4.77427 5.60597 4.05912 6.33452L2.3879 8.03269C2.13401 8.29078 1.97009 8.64034 1.8969 9.01616C1.76119 9.70054 1.92511 10.4748 2.3879 10.9454L9.5493 18.2255C10.2652 18.9533 11.697 18.9533 12.4137 18.2255L14.0849 16.5266L19.3182 11.2066Z" fill="#36DFAE"/>
<path d="M24.4672 5.77053L19.0098 11.2438L13.825 16.4428L12.1692 18.103C11.4592 18.8143 10.0406 18.8143 9.33133 18.103L2.23624 10.9885C1.77773 10.5288 1.61533 9.77202 1.74978 9.10321C1.8223 8.73586 1.9847 8.39434 2.23624 8.14211L3.89198 6.48259C4.60051 5.77061 6.01983 5.77061 6.72987 6.48259L10.7507 10.5143L16.2708 4.97826L18.765 2.47656L19.9736 1.26543C20.6836 0.55345 22.103 0.55345 22.8115 1.26543L24.4672 2.92495C24.6606 3.11954 24.8019 3.36653 24.8895 3.63762C25.1244 4.3602 24.9831 5.25321 24.4672 5.77053Z" fill="#36DFAE"/>
</svg>