<svg width="126" height="102" viewBox="0 0 126 102" fill="none" xmlns="http://www.w3.org/2000/svg">
<path d="M62.8354 101C96.9861 101 124.671 89.9282 124.671 76.2707C124.671 62.6131 96.9861 51.5415 62.8354 51.5415C28.6846 51.5415 1 62.6131 1 76.2707C1 89.9282 28.6846 101 62.8354 101Z" stroke="#1D555C" stroke-width="2" stroke-linecap="round" stroke-linejoin="round"/>
<path d="M62.8361 89.9593C87.6372 89.9593 107.742 83.1855 107.742 74.8297C107.742 66.4739 87.6372 59.7002 62.8361 59.7002C38.035 59.7002 17.9297 66.4739 17.9297 74.8297C17.9297 83.1855 38.035 89.9593 62.8361 89.9593Z" stroke="#1D555C" stroke-width="2" stroke-linecap="round" stroke-linejoin="round"/>
<path d="M62.836 81.8382C75.7857 81.8382 86.2834 78.7002 86.2834 74.8293C86.2834 70.9583 75.7857 67.8203 62.836 67.8203C49.8864 67.8203 39.3887 70.9583 39.3887 74.8293C39.3887 78.7002 49.8864 81.8382 62.836 81.8382Z" stroke="#1D555C" stroke-width="2" stroke-linecap="round" stroke-linejoin="round"/>
<path d="M94.2166 56.6288L62.2344 74.8954L30.4961 56.2143L30.7399 19.2666L62.7128 1L94.4511 19.6811L94.2166 56.6288Z" fill="white" stroke="#1D555C" stroke-width="2" stroke-linecap="round" stroke-linejoin="round"/>
<path d="M63.154 59.3231L48.9824 39.3608L63.154 14.7729L77.3256 39.3608L63.154 59.3231Z" fill="white" stroke="#36DFAE" stroke-width="2" stroke-linecap="round" stroke-linejoin="round"/>
<path d="M63.1543 14.7729V59.3231" stroke="#36DFAE" stroke-width="2" stroke-linecap="round" stroke-linejoin="round"/>
<path d="M48.9824 39.3608L63.154 43.911" stroke="#36DFAE" stroke-width="2" stroke-linecap="round" stroke-linejoin="round"/>
<path d="M77.279 39.3608L63.1074 43.911" stroke="#36DFAE" stroke-width="2" stroke-linecap="round" stroke-linejoin="round"/>
</svg>
