<svg width="139" height="92" viewBox="0 0 139 92" fill="none" xmlns="http://www.w3.org/2000/svg">
<path d="M33.127 33.2505L53.9859 23.9507" stroke="#36DFAE" stroke-width="2" stroke-linecap="round" stroke-linejoin="round"/>
<path d="M32.5039 46.7252L74.2315 28.1255" stroke="#36DFAE" stroke-width="2" stroke-linecap="round" stroke-linejoin="round"/>
<path d="M37.3809 57.7594L53.8495 50.4097" stroke="#36DFAE" stroke-width="2" stroke-linecap="round" stroke-linejoin="round"/>
<path d="M46.0352 68.4214L69.0893 58.1416" stroke="#36DFAE" stroke-width="2" stroke-linecap="round" stroke-linejoin="round"/>
<path d="M26.8449 10.8192C29.5444 10.8192 31.7328 8.62113 31.7328 5.90962C31.7328 3.19811 29.5444 1 26.8449 1C24.1454 1 21.957 3.19811 21.957 5.90962C21.957 8.62113 24.1454 10.8192 26.8449 10.8192Z" stroke="#1D555C" stroke-width="2" stroke-linecap="round" stroke-linejoin="round"/>
<path d="M124.651 27.655C131.979 27.655 137.92 21.6881 137.92 14.3275C137.92 6.96694 131.979 1 124.651 1C117.323 1 111.383 6.96694 111.383 14.3275C111.383 21.6881 117.323 27.655 124.651 27.655Z" stroke="#1D555C" stroke-width="2" stroke-linecap="round" stroke-linejoin="round"/>
<path d="M9.38065 90.9998C14.0092 90.9998 17.7613 87.231 17.7613 82.582C17.7613 77.9329 14.0092 74.1641 9.38065 74.1641C4.75215 74.1641 1 77.9329 1 82.582C1 87.231 4.75215 90.9998 9.38065 90.9998Z" stroke="#1D555C" stroke-width="2" stroke-linecap="round" stroke-linejoin="round"/>
<path d="M67.5872 76.4379C87.1412 76.4379 102.993 60.5158 102.993 40.8749C102.993 21.2341 87.1412 5.31201 67.5872 5.31201C48.0333 5.31201 32.1816 21.2341 32.1816 40.8749C32.1816 60.5158 48.0333 76.4379 67.5872 76.4379Z" stroke="#1D555C" stroke-width="2" stroke-linecap="round" stroke-linejoin="round"/>
</svg>
