<svg width="125" height="102" viewBox="0 0 125 102" fill="none" xmlns="http://www.w3.org/2000/svg">
<path d="M62.036 101H113.359C123.531 101 123.069 90.7827 123.069 90.7827H62.036H1.00321C1.00321 90.7827 0.540841 101 10.713 101H62.036Z" stroke="#1D555C" stroke-width="2" stroke-linejoin="round"/>
<path d="M12.5625 89.2502V17.5337H37.0126" stroke="#1D555C" stroke-width="2" stroke-linecap="round" stroke-linejoin="round"/>
<path d="M85.9043 17.5337H111.52V89.2502" stroke="#1D555C" stroke-width="2" stroke-linecap="round" stroke-linejoin="round"/>
<path d="M85.9029 26.3394H101.494V80.4356H22.5859V26.3394H37.0119" stroke="#1D555C" stroke-width="2" stroke-linecap="round" stroke-linejoin="round"/>
<path d="M63.7391 28.5495V31.1968H61.5474V28.6424C60.4655 28.4659 59.8552 28.2895 58.9119 27.7322C56.9237 26.5897 56.3412 25.0292 55.8418 22.8836L58.616 22.2984C58.8472 23.0879 59.0876 23.9424 59.6147 24.6205C60.2621 25.41 61.2793 25.8559 62.3057 25.8559C64.146 25.8559 65.5516 24.5369 65.5516 22.6513C65.5516 19.3911 60.6412 18.9174 58.7362 17.0411C57.8022 16.103 57.2197 14.8119 57.2197 13.4557C57.2197 10.7806 59.0876 9.10872 61.5474 8.49568V5.99707H63.7391V8.49568C65.9307 8.79291 66.9849 9.87966 68.0114 11.7559L65.5238 13.1399C64.8765 11.9046 64.0905 11.115 62.6294 11.115C61.2885 11.115 60.0586 11.9974 60.0586 13.4372C60.0586 17.0225 68.446 16.1122 68.446 22.5399C68.446 25.4472 66.5133 27.825 63.7391 28.5588V28.5495Z" fill="#36DFAE"/>
<path d="M62.0369 37.4852C72.0674 37.4852 80.1988 29.3177 80.1988 19.2426C80.1988 9.16749 72.0674 1 62.0369 1C52.0064 1 43.875 9.16749 43.875 19.2426C43.875 29.3177 52.0064 37.4852 62.0369 37.4852Z" stroke="#1D555C" stroke-width="2" stroke-linejoin="round"/>
<path d="M62.6196 72.0201C67.1191 72.0201 70.7666 68.3564 70.7666 63.837C70.7666 59.3175 67.1191 55.6538 62.6196 55.6538C58.1202 55.6538 54.4727 59.3175 54.4727 63.837C54.4727 68.3564 58.1202 72.0201 62.6196 72.0201Z" stroke="#1D555C" stroke-width="2" stroke-linecap="round" stroke-linejoin="round"/>
<path d="M88.2349 55.6442C92.7343 55.6442 96.3818 51.9804 96.3818 47.461C96.3818 42.9416 92.7343 39.2778 88.2349 39.2778C83.7354 39.2778 80.0879 42.9416 80.0879 47.461C80.0879 51.9804 83.7354 55.6442 88.2349 55.6442Z" stroke="#1D555C" stroke-width="2" stroke-linecap="round" stroke-linejoin="round"/>
<path d="M62.6191 38.1074V54.4738" stroke="#1D555C" stroke-width="2" stroke-linecap="round" stroke-linejoin="round"/>
<path d="M74.7793 33.9463L82.4084 41.6186" stroke="#1D555C" stroke-width="2" stroke-linecap="round" stroke-linejoin="round"/>
<path d="M35.8481 55.6442C40.3476 55.6442 43.9951 51.9804 43.9951 47.461C43.9951 42.9416 40.3476 39.2778 35.8481 39.2778C31.3487 39.2778 27.7012 42.9416 27.7012 47.461C27.7012 51.9804 31.3487 55.6442 35.8481 55.6442Z" stroke="#1D555C" stroke-width="2" stroke-linecap="round" stroke-linejoin="round"/>
<path d="M49.3024 33.9463L41.6641 41.6186" stroke="#1D555C" stroke-width="2" stroke-linecap="round" stroke-linejoin="round"/>
<path d="M54.2773 96.1514H69.7945" stroke="#1D555C" stroke-width="2" stroke-linecap="round" stroke-linejoin="round"/>
</svg>
