<svg width="72" height="102" viewBox="0 0 72 102" fill="none" xmlns="http://www.w3.org/2000/svg">
<path d="M70.2087 35.7626C70.2087 16.5652 54.7124 1 35.6088 1C16.5052 1 1 16.5652 1 35.7626C1 49.6003 9.05245 61.5511 20.7034 67.1411V93.9483H50.7964V66.9993C62.2886 61.3473 70.2087 49.4851 70.2087 35.7626Z" stroke="#1D555C" stroke-width="2" stroke-linejoin="round"/>
<path d="M35.9003 11.1699C35.9003 11.1699 54.7746 27.0186 35.9003 39.5806C17.026 27.0186 35.9003 11.1699 35.9003 11.1699Z" stroke="#36DFAE" stroke-width="2" stroke-linecap="round" stroke-linejoin="round"/>
<path d="M35.9004 23.4751V56.6962" stroke="#1D555C" stroke-width="2" stroke-linecap="round" stroke-linejoin="round"/>
<path d="M61.83 32.5557C61.83 32.5557 64.0173 57.1659 41.8268 52.6478C37.3287 30.3586 61.83 32.5557 61.83 32.5557Z" stroke="#36DFAE" stroke-width="2" stroke-linecap="round" stroke-linejoin="round"/>
<path d="M53.1691 41.2554L41.9062 52.5683" stroke="#1D555C" stroke-width="2" stroke-linecap="round" stroke-linejoin="round"/>
<path d="M9.4851 32.5557C9.4851 32.5557 7.29779 57.1659 29.4883 52.6478C33.9864 30.3586 9.4851 32.5557 9.4851 32.5557Z" stroke="#36DFAE" stroke-width="2" stroke-linecap="round" stroke-linejoin="round"/>
<path d="M18.1465 41.2554L29.4093 52.5683" stroke="#1D555C" stroke-width="2" stroke-linecap="round" stroke-linejoin="round"/>
<path d="M29.7793 77.0098H56.1239" stroke="#1D555C" stroke-width="2" stroke-miterlimit="10" stroke-linecap="round"/>
<path d="M21.1973 67.7788H50.6024" stroke="#1D555C" stroke-width="2" stroke-miterlimit="10" stroke-linecap="round"/>
<path d="M29.7793 84.3896H56.1239" stroke="#1D555C" stroke-width="2" stroke-miterlimit="10" stroke-linecap="round"/>
<path d="M43.864 94.2319H27.9355V101H43.864V94.2319Z" stroke="#1D555C" stroke-width="2" stroke-linecap="round" stroke-linejoin="round"/>
</svg>
