<svg width="25" height="20" viewBox="0 0 25 20" fill="none" xmlns="http://www.w3.org/2000/svg">
<path d="M25 2.36923C24.0833 2.76923 23.0938 3.04615 22.0521 3.16923C23.1146 2.54358 23.9271 1.55897 24.3125 0.379482C23.3229 0.953841 22.2187 1.37435 21.0521 1.61025C20.1146 0.625636 18.7812 0.0205078 17.3125 0.0205078C14 0.0205078 11.5729 3.06666 12.3125 6.22564C8.05208 5.98974 4.27083 3.97948 1.73958 0.923072C0.395833 3.18974 1.04167 6.1641 3.32292 7.66153C2.47917 7.63076 1.6875 7.40512 1 7.02564C0.947917 9.3641 2.64583 11.5487 5.11458 12.041C4.39583 12.2359 3.60417 12.2769 2.80208 12.1231C3.45833 14.1333 5.34375 15.5897 7.59375 15.6308C5.4375 17.2923 2.71875 18.041 0 17.7231C2.27083 19.159 4.96875 19.9897 7.86458 19.9897C17.3854 19.9897 22.7708 12.0718 22.4375 4.9641C23.4375 4.24615 24.3125 3.3641 25 2.34871V2.36923Z" fill="#1D555C"/>
</svg>
