<svg width="30" height="30" viewBox="0 0 30 30" fill="none" xmlns="http://www.w3.org/2000/svg">
    <circle cx="15" cy="15" r="15" fill="white" />
    <path
        d="M21.9419 7.92324C20.6473 7.33637 19.263 6.90985 17.8157 6.66699C17.638 6.97833 17.4304 7.39709 17.2872 7.73021C15.7487 7.50605 14.2245 7.50605 12.7143 7.73021C12.5712 7.39709 12.3588 6.97833 12.1795 6.66699C10.7307 6.90985 9.3448 7.33793 8.05016 7.92635C5.43887 11.7495 4.73099 15.4777 5.08493 19.153C6.81688 20.4061 8.49534 21.1673 10.1455 21.6655C10.5529 21.1222 10.9163 20.5446 11.2293 19.936C10.6331 19.7165 10.0621 19.4457 9.52256 19.1312C9.6657 19.0285 9.80571 18.921 9.94098 18.8105C13.2318 20.3018 16.8074 20.3018 20.0589 18.8105C20.1958 18.921 20.3358 19.0285 20.4774 19.1312C19.9362 19.4472 19.3637 19.718 18.7675 19.9376C19.0805 20.5446 19.4423 21.1237 19.8513 21.667C21.503 21.1689 23.183 20.4077 24.915 19.153C25.3303 14.8924 24.2056 11.1984 21.9419 7.92324ZM11.6776 16.8927C10.6898 16.8927 9.87963 15.9992 9.87963 14.9111C9.87963 13.823 10.6725 12.9279 11.6776 12.9279C12.6829 12.9279 13.493 13.8214 13.4757 14.9111C13.4772 15.9992 12.6829 16.8927 11.6776 16.8927ZM18.3223 16.8927C17.3344 16.8927 16.5243 15.9992 16.5243 14.9111C16.5243 13.823 17.3171 12.9279 18.3223 12.9279C19.3275 12.9279 20.1376 13.8214 20.1203 14.9111C20.1203 15.9992 19.3275 16.8927 18.3223 16.8927Z"
        fill="#06121E" />
</svg>
    