<svg width="30" height="30" viewBox="0 0 30 30" fill="none" xmlns="http://www.w3.org/2000/svg">
    <path
        d="M15.1283 0C6.915 0 0 6.6 0 14.7383V30L15.125 29.9833C23.3383 29.9833 30 23.1333 30 14.995C30 6.855 23.3333 0 15.1283 0ZM21.6617 21.4317C20.3288 22.6953 18.6509 23.535 16.8405 23.8445C15.0301 24.1539 13.1686 23.9192 11.4917 23.17L5.5 24.5117L7.16833 19.1917C6.40718 17.8026 6.02356 16.2383 6.05573 14.6547C6.08789 13.0711 6.53473 11.5236 7.35167 10.1667C8.176 8.80356 9.33838 7.67643 10.7262 6.89447C12.1141 6.11251 13.6804 5.70222 15.2733 5.70333L15.2833 5.705C17.1169 5.7017 18.9098 6.24508 20.4331 7.26573C21.9563 8.28637 23.1407 9.73794 23.835 11.435C24.5206 13.1265 24.68 14.9855 24.2922 16.769C23.9045 18.5525 22.9877 20.1775 21.6617 21.4317Z"
        fill="white" />
</svg>
    