<svg width="30" height="30" viewBox="0 0 30 30" fill="none" xmlns="http://www.w3.org/2000/svg">
<path fill-rule="evenodd" clip-rule="evenodd" d="M30 15C30 23.2843 23.2843 30 15 30C6.71573 30 0 23.2843 0 15C0 6.71573 6.71573 0 15 0C23.2843 0 30 6.71573 30 15ZM17.8157 6.66699C19.263 6.90985 20.6473 7.33637 21.9419 7.92324C24.2056 11.1984 25.3303 14.8924 24.915 19.153C23.183 20.4077 21.503 21.1689 19.8513 21.667C19.4423 21.1237 19.0805 20.5446 18.7675 19.9376C19.3637 19.718 19.9362 19.4472 20.4774 19.1312C20.3358 19.0285 20.1958 18.921 20.0589 18.8105C16.8074 20.3018 13.2318 20.3018 9.94098 18.8105C9.80571 18.921 9.6657 19.0285 9.52256 19.1312C10.0621 19.4457 10.6331 19.7165 11.2293 19.936C10.9163 20.5446 10.5529 21.1222 10.1455 21.6655C8.49534 21.1673 6.81688 20.4061 5.08493 19.153C4.73099 15.4777 5.43887 11.7495 8.05016 7.92635C9.3448 7.33793 10.7307 6.90985 12.1795 6.66699C12.3588 6.97833 12.5712 7.39709 12.7143 7.73021C14.2245 7.50605 15.7487 7.50605 17.2872 7.73021C17.4304 7.39709 17.638 6.97833 17.8157 6.66699ZM9.87963 14.9111C9.87963 15.9992 10.6898 16.8927 11.6776 16.8927C12.6829 16.8927 13.4772 15.9992 13.4757 14.9111C13.493 13.8214 12.6829 12.9279 11.6776 12.9279C10.6725 12.9279 9.87963 13.823 9.87963 14.9111ZM16.5243 14.9111C16.5243 15.9992 17.3344 16.8927 18.3223 16.8927C19.3275 16.8927 20.1203 15.9992 20.1203 14.9111C20.1376 13.8214 19.3275 12.9279 18.3223 12.9279C17.3171 12.9279 16.5243 13.823 16.5243 14.9111Z" fill="#1D555C"/>
</svg>