<svg width="30" height="33" viewBox="0 0 30 33" fill="none" xmlns="http://www.w3.org/2000/svg">
<ellipse cx="15" cy="16.7419" rx="15" ry="16.0313" fill="white"/>
<path d="M21.9419 9.17847C20.6473 8.55124 19.263 8.09541 17.8157 7.83585C17.638 8.16859 17.4304 8.61614 17.2872 8.97217C15.7487 8.73259 14.2245 8.73259 12.7143 8.97217C12.5712 8.61614 12.3588 8.16859 12.1795 7.83585C10.7307 8.09541 9.3448 8.55292 8.05016 9.18179C5.43887 13.2678 4.73099 17.2524 5.08493 21.1803C6.81688 22.5196 8.49534 23.3332 10.1455 23.8655C10.5529 23.2849 10.9163 22.6677 11.2293 22.0172C10.6331 21.7826 10.0621 21.4931 9.52256 21.1571C9.6657 21.0472 9.80571 20.9324 9.94098 20.8143C13.2318 22.4081 16.8074 22.4081 20.0589 20.8143C20.1958 20.9324 20.3358 21.0472 20.4774 21.1571C19.9362 21.4948 19.3637 21.7842 18.7675 22.0189C19.0805 22.6677 19.4423 23.2866 19.8513 23.8672C21.503 23.3348 23.183 22.5213 24.915 21.1803C25.3303 16.6268 24.2056 12.6789 21.9419 9.17847ZM11.6776 18.7647C10.6898 18.7647 9.87963 17.8097 9.87963 16.6468C9.87963 15.4839 10.6725 14.5272 11.6776 14.5272C12.6829 14.5272 13.493 15.4822 13.4757 16.6468C13.4772 17.8097 12.6829 18.7647 11.6776 18.7647ZM18.3223 18.7647C17.3344 18.7647 16.5243 17.8097 16.5243 16.6468C16.5243 15.4839 17.3171 14.5272 18.3223 14.5272C19.3275 14.5272 20.1376 15.4822 20.1203 16.6468C20.1203 17.8097 19.3275 18.7647 18.3223 18.7647Z" fill="#06121E"/>
</svg>