<svg width="30" height="33" viewBox="0 0 30 33" fill="none" xmlns="http://www.w3.org/2000/svg">
<path d="M15 32.7733C23.2843 32.7733 30 25.5958 30 16.7419C30 7.88807 23.2843 0.710587 15 0.710587C6.71573 0.710587 0 7.88807 0 16.7419C0 25.5958 6.71573 32.7733 15 32.7733Z" fill="white"/>
<path d="M24.6174 10.3649C23.9099 10.7005 23.1499 10.9273 22.3509 11.0293C23.1664 10.5074 23.7911 9.68041 24.086 8.69616C23.3114 9.18786 22.4637 9.53402 21.5796 9.7196C20.8602 8.90002 19.8343 8.38832 18.6993 8.38832C16.5207 8.38832 14.7539 10.2759 14.7539 12.6056C14.7539 12.9357 14.7886 13.2578 14.8555 13.567C11.5759 13.3908 8.66839 11.7118 6.72221 9.16066C6.38238 9.78373 6.18786 10.5082 6.18786 11.2811C6.18786 12.7441 6.88459 14.0348 7.94324 14.791C7.31654 14.7702 6.70358 14.5894 6.15562 14.2637V14.317C6.15562 16.3605 7.5156 18.0645 9.3209 18.452C8.98927 18.5491 8.64124 18.5998 8.28119 18.5998C8.02662 18.5998 7.77964 18.5741 7.53837 18.5256C8.04053 20.2005 9.49785 21.4197 11.2241 21.4542C9.87358 22.5856 8.17189 23.2601 6.32365 23.2601C6.00532 23.2601 5.6907 23.2398 5.38184 23.2C7.12841 24.3969 9.20217 25.0957 11.4307 25.0957C18.6885 25.0957 22.6579 18.6694 22.6579 13.0965C22.6579 12.9135 22.6541 12.7319 22.6459 12.551C23.4193 11.9531 24.0868 11.2129 24.6174 10.3649Z" fill="#06121E"/>
</svg>