<svg width="21" height="21" viewBox="0 0 21 21" fill="none" xmlns="http://www.w3.org/2000/svg">
<path d="M10.5 1.75C15.3212 1.75 19.25 5.67875 19.25 10.5C19.25 15.3212 15.3212 19.25 10.5 19.25C5.67875 19.25 1.75 15.3212 1.75 10.5C1.75 5.67875 5.67875 1.75 10.5 1.75ZM10.5 0C4.69875 0 0 4.69875 0 10.5C0 16.3013 4.69875 21 10.5 21C16.3013 21 21 16.3013 21 10.5C21 4.69875 16.3013 0 10.5 0ZM10.5 5.25C7.60375 5.25 5.25 7.60375 5.25 10.5C5.25 12.8188 6.755 14.7875 8.8375 15.4788C9.1 15.5312 9.1875 15.365 9.1875 15.225V14.245C7.72625 14.56 7.42 13.6237 7.42 13.6237C7.18375 13.02 6.83375 12.8537 6.83375 12.8537C6.36125 12.53 6.86875 12.5387 6.86875 12.5387C7.39375 12.5737 7.67375 13.0813 7.67375 13.0813C8.1375 13.8862 8.89875 13.65 9.205 13.5188C9.24875 13.1775 9.38875 12.95 9.5375 12.8187C8.37375 12.6875 7.14875 12.2325 7.14875 10.22C7.14875 9.65125 7.35 9.17875 7.69125 8.81125C7.63875 8.68 7.455 8.14625 7.74375 7.42C7.74375 7.42 8.18125 7.28 9.1875 7.95375C9.6075 7.84 10.0538 7.77875 10.5 7.77875C10.9462 7.77875 11.3925 7.84 11.8125 7.95375C12.8188 7.27125 13.2562 7.42 13.2562 7.42C13.545 8.14625 13.3612 8.68 13.3088 8.81125C13.65 9.17875 13.8512 9.6425 13.8512 10.22C13.8512 12.2413 12.6263 12.6788 11.4538 12.81C11.6462 12.9763 11.8125 13.2913 11.8125 13.7812V15.225C11.8125 15.365 11.9 15.5312 12.1625 15.4788C14.245 14.7875 15.75 12.8188 15.75 10.5C15.75 7.60375 13.3962 5.25 10.5 5.25Z" fill="#1D555C"/>
</svg>
