<svg width="140" height="140" viewBox="0 0 140 140" fill="none" xmlns="http://www.w3.org/2000/svg">
    <rect width="140" height="140" fill="white" />
    <g clip-path="url(#clip0_2019_17761)">
        <path
            d="M126.919 21.4375H13.6063C9.23285 21.4375 5.6875 24.9828 5.6875 29.3563V98.7262C5.6875 103.1 9.23285 106.645 13.6063 106.645H126.919C131.292 106.645 134.838 103.1 134.838 98.7262V29.3563C134.838 24.9828 131.292 21.4375 126.919 21.4375Z"
            stroke="#1D555C" stroke-width="3" stroke-miterlimit="10" />
        <path d="M52.2461 35.3589H81.2261" stroke="#36DFAE" stroke-width="3" stroke-linecap="round"
            stroke-linejoin="round" />
        <path d="M41.4316 43.6011H92.0416" stroke="#36DFAE" stroke-width="3" stroke-linecap="round"
            stroke-linejoin="round" />
        <path d="M16.502 63.5776H66.6744" stroke="#1D555C" stroke-width="3" stroke-linecap="round"
            stroke-linejoin="round" />
        <path d="M16.502 73.4648H66.6744" stroke="#1D555C" stroke-width="3" stroke-linecap="round"
            stroke-linejoin="round" />
        <path d="M16.502 83.3438H66.5082" stroke="#1D555C" stroke-width="3" stroke-linecap="round"
            stroke-linejoin="round" />
        <path
            d="M92.7676 94.771V116.812C92.7676 117.775 93.3451 118.028 94.0626 117.381L99.9601 112C100.669 111.352 101.255 110.819 101.255 110.819C101.255 110.819 101.833 111.352 102.55 112L108.448 117.381C109.156 118.028 109.743 117.775 109.743 116.812V95.086"
            fill="white" />
        <path
            d="M92.7676 94.771V116.812C92.7676 117.775 93.3451 118.028 94.0626 117.381L99.9601 112C100.669 111.352 101.255 110.818 101.255 110.818C101.255 110.818 101.833 111.352 102.55 112L108.448 117.381C109.156 118.028 109.743 117.775 109.743 116.812V95.086"
            stroke="#1D555C" stroke-width="3" stroke-miterlimit="10" />
        <path
            d="M100.852 53.0948C101.237 52.8148 101.876 52.8148 102.269 53.0948L107.283 56.7348C107.668 57.0148 108.386 57.251 108.867 57.251H115.071C115.552 57.251 116.068 57.6273 116.217 58.0823L118.133 63.9798C118.282 64.4348 118.719 65.0473 119.113 65.3273L124.127 68.9673C124.512 69.2473 124.713 69.8598 124.564 70.3148L122.648 76.2123C122.499 76.6673 122.499 77.4198 122.648 77.8748L124.564 83.7723C124.713 84.2273 124.512 84.8398 124.127 85.1198L119.113 88.7598C118.728 89.0398 118.282 89.6523 118.133 90.1073L116.217 96.0048C116.068 96.4598 115.552 96.836 115.071 96.836H108.867C108.386 96.836 107.677 97.0635 107.283 97.3523L102.269 100.992C101.884 101.272 101.246 101.272 100.852 100.992L95.8382 97.3523C95.4532 97.0723 94.7357 96.836 94.2545 96.836H88.0507C87.5695 96.836 87.0532 96.4598 86.9045 96.0048L84.9882 90.1073C84.8395 89.6523 84.402 89.0398 84.0082 88.7598L78.9945 85.1198C78.6095 84.8398 78.4082 84.2273 78.557 83.7723L80.4732 77.8748C80.622 77.4198 80.622 76.6673 80.4732 76.2123L78.557 70.3148C78.4082 69.8598 78.6095 69.2473 78.9945 68.9673L84.0082 65.3273C84.3932 65.0473 84.8395 64.4348 84.9882 63.9798L86.9045 58.0823C87.0532 57.6273 87.5695 57.251 88.0507 57.251H94.2545C94.7357 57.251 95.4445 57.0235 95.8382 56.7348L100.852 53.0948Z"
            fill="white" />
        <path
            d="M100.852 53.0948C101.237 52.8148 101.876 52.8148 102.269 53.0948L107.283 56.7348C107.668 57.0148 108.386 57.251 108.867 57.251H115.071C115.552 57.251 116.068 57.6273 116.217 58.0823L118.133 63.9798C118.282 64.4348 118.719 65.0473 119.113 65.3273L124.127 68.9673C124.512 69.2473 124.713 69.8598 124.564 70.3148L122.648 76.2123C122.499 76.6673 122.499 77.4198 122.648 77.8748L124.564 83.7723C124.713 84.2273 124.512 84.8398 124.127 85.1198L119.113 88.7598C118.728 89.0398 118.282 89.6523 118.133 90.1073L116.217 96.0048C116.068 96.4598 115.552 96.836 115.071 96.836H108.867C108.386 96.836 107.677 97.0635 107.283 97.3523L102.269 100.992C101.884 101.272 101.246 101.272 100.852 100.992L95.8382 97.3523C95.4532 97.0723 94.7357 96.836 94.2545 96.836H88.0507C87.5695 96.836 87.0532 96.4598 86.9045 96.0048L84.9882 90.1073C84.8395 89.6523 84.402 89.0398 84.0082 88.7598L78.9945 85.1198C78.6095 84.8398 78.4082 84.2273 78.557 83.7723L80.4732 77.8748C80.622 77.4198 80.622 76.6673 80.4732 76.2123L78.557 70.3148C78.4082 69.8598 78.6095 69.2473 78.9945 68.9673L84.0082 65.3273C84.3932 65.0473 84.8395 64.4348 84.9882 63.9798L86.9045 58.0823C87.0532 57.6273 87.5695 57.251 88.0507 57.251H94.2545C94.7357 57.251 95.4445 57.0235 95.8382 56.7348L100.852 53.0948Z"
            stroke="#1D555C" stroke-width="3" stroke-miterlimit="10" />
        <path
            d="M101.273 90.6415C108.44 90.6415 114.249 84.8318 114.249 77.6652C114.249 70.4986 108.44 64.689 101.273 64.689C94.1065 64.689 88.2969 70.4986 88.2969 77.6652C88.2969 84.8318 94.1065 90.6415 101.273 90.6415Z"
            fill="white" stroke="#36DFAE" stroke-width="3" stroke-linecap="round"
            stroke-linejoin="round" />
        <path d="M95.8477 76.8866L100.459 81.5066L106.846 75.1104" stroke="#36DFAE" stroke-width="3"
            stroke-linecap="round" stroke-linejoin="round" />
    </g>
    <defs>
        <clipPath id="clip0_2019_17761">
            <rect width="131.775" height="98.9275" fill="white" transform="translate(4.375 20.125)" />
        </clipPath>
    </defs>
</svg>
    