<svg width="140" height="140" viewBox="0 0 140 140" fill="none" xmlns="http://www.w3.org/2000/svg">
    <rect width="140" height="140" fill="white" />
    <path d="M71.0156 107.756V32.436" stroke="#1D555C" stroke-width="3" stroke-miterlimit="10" />
    <path d="M31.5625 72.7124H108.571" stroke="#1D555C" stroke-width="3" stroke-miterlimit="10" />
    <path d="M36.5488 106.111L107.415 35.2451" stroke="#1D555C" stroke-width="3"
        stroke-miterlimit="10" />
    <path d="M41.3184 41.4839L107.005 107.179" stroke="#1D555C" stroke-width="3"
        stroke-miterlimit="10" />
    <path
        d="M71.015 119.91C74.1126 119.91 76.6237 117.399 76.6237 114.301C76.6237 111.204 74.1126 108.692 71.015 108.692C67.9174 108.692 65.4062 111.204 65.4062 114.301C65.4062 117.399 67.9174 119.91 71.015 119.91Z"
        stroke="#36DFAE" stroke-width="3" stroke-linecap="round" stroke-linejoin="round" />
    <path
        d="M71.0155 32.445C74.6592 32.445 77.613 29.4912 77.613 25.8475C77.613 22.2038 74.6592 19.25 71.0155 19.25C67.3718 19.25 64.418 22.2038 64.418 25.8475C64.418 29.4912 67.3718 32.445 71.0155 32.445Z"
        stroke="#36DFAE" stroke-width="3" stroke-linecap="round" stroke-linejoin="round" />
    <path
        d="M24.9725 79.3102C28.6162 79.3102 31.57 76.3564 31.57 72.7127C31.57 69.069 28.6162 66.1152 24.9725 66.1152C21.3288 66.1152 18.375 69.069 18.375 72.7127C18.375 76.3564 21.3288 79.3102 24.9725 79.3102Z"
        stroke="#36DFAE" stroke-width="3" stroke-linecap="round" stroke-linejoin="round" />
    <path
        d="M115.308 79.3102C118.952 79.3102 121.906 76.3564 121.906 72.7127C121.906 69.069 118.952 66.1152 115.308 66.1152C111.665 66.1152 108.711 69.069 108.711 72.7127C108.711 76.3564 111.665 79.3102 115.308 79.3102Z"
        stroke="#36DFAE" stroke-width="3" stroke-linecap="round" stroke-linejoin="round" />
    <path
        d="M30.721 120.19C35.2732 120.19 38.9635 116.5 38.9635 111.948C38.9635 107.395 35.2732 103.705 30.721 103.705C26.1688 103.705 22.4785 107.395 22.4785 111.948C22.4785 116.5 26.1688 120.19 30.721 120.19Z"
        stroke="#36DFAE" stroke-width="3" stroke-linecap="round" stroke-linejoin="round" />
    <path
        d="M113.242 37.6598C117.795 37.6598 121.485 33.9695 121.485 29.4173C121.485 24.8651 117.795 21.1748 113.242 21.1748C108.69 21.1748 105 24.8651 105 29.4173C105 33.9695 108.69 37.6598 113.242 37.6598Z"
        stroke="#36DFAE" stroke-width="3" stroke-linecap="round" stroke-linejoin="round" />
    <path
        d="M71.1294 96.4511C84.2399 96.4511 94.8681 85.8229 94.8681 72.7124C94.8681 59.6018 84.2399 48.9736 71.1294 48.9736C58.0188 48.9736 47.3906 59.6018 47.3906 72.7124C47.3906 85.8229 58.0188 96.4511 71.1294 96.4511Z"
        fill="white" stroke="#1D555C" stroke-width="3" stroke-miterlimit="10" />
    <path
        d="M35.4808 43.8991C40.033 43.8991 43.7233 40.2088 43.7233 35.6566C43.7233 31.1044 40.033 27.4141 35.4808 27.4141C30.9286 27.4141 27.2383 31.1044 27.2383 35.6566C27.2383 40.2088 30.9286 43.8991 35.4808 43.8991Z"
        stroke="#36DFAE" stroke-width="3" stroke-linecap="round" stroke-linejoin="round" />
    <path
        d="M112.998 121.415C117.551 121.415 121.241 117.724 121.241 113.172C121.241 108.62 117.551 104.93 112.998 104.93C108.446 104.93 104.756 108.62 104.756 113.172C104.756 117.724 108.446 121.415 112.998 121.415Z"
        stroke="#36DFAE" stroke-width="3" stroke-linecap="round" stroke-linejoin="round" />
    <path
        d="M71.125 85.7676C78.3737 85.7676 84.25 79.8913 84.25 72.6426C84.25 65.3938 78.3737 59.5176 71.125 59.5176C63.8763 59.5176 58 65.3938 58 72.6426C58 79.8913 63.8763 85.7676 71.125 85.7676Z"
        stroke="#36DFAE" stroke-width="3" stroke-linecap="round" stroke-linejoin="round" />
    <path
        d="M72.2763 80.9006V83H70.5345V80.9709C69.6737 80.8302 69.1832 80.6896 68.4424 80.2476C66.8609 79.3435 66.4004 78.108 66 76.4003L68.2022 75.9382C68.3924 76.5711 68.5726 77.2441 68.993 77.7765C69.5035 78.4093 70.3143 78.7509 71.1251 78.7509C72.5866 78.7509 73.6977 77.7062 73.6977 76.2094C73.6977 73.6278 69.7938 73.2461 68.2923 71.7594C67.5516 71.0161 67.0811 69.9915 67.0811 68.9166C67.0811 66.7971 68.5626 65.4711 70.5145 64.9789V63H72.2563V64.9789C73.998 65.2099 74.8288 66.0738 75.6497 67.5605L73.6777 68.6554C73.1672 67.6811 72.5365 67.0482 71.3754 67.0482C70.3043 67.0482 69.3333 67.7514 69.3333 68.8865C69.3333 71.7293 76 71.006 76 76.109C76 78.4194 74.4685 80.3079 72.2663 80.8905L72.2763 80.9006Z"
        fill="#36DFAE" />
</svg>
    