<svg width="139" height="92" viewBox="0 0 139 92" fill="none" xmlns="http://www.w3.org/2000/svg">
    <path d="M33.1289 33.2507L53.9878 23.9508" stroke="#36DFAE" stroke-width="2"
        stroke-linecap="round" stroke-linejoin="round" />
    <path d="M32.5039 46.7251L74.2315 28.1254" stroke="#36DFAE" stroke-width="2"
        stroke-linecap="round" stroke-linejoin="round" />
    <path d="M37.3828 57.7594L53.8514 50.4097" stroke="#36DFAE" stroke-width="2"
        stroke-linecap="round" stroke-linejoin="round" />
    <path d="M46.0352 68.4217L69.0893 58.1418" stroke="#36DFAE" stroke-width="2"
        stroke-linecap="round" stroke-linejoin="round" />
    <path
        d="M26.8449 10.8192C29.5444 10.8192 31.7328 8.62113 31.7328 5.90962C31.7328 3.19811 29.5444 1 26.8449 1C24.1454 1 21.957 3.19811 21.957 5.90962C21.957 8.62113 24.1454 10.8192 26.8449 10.8192Z"
        stroke="#1D555C" stroke-width="2" stroke-linecap="round" stroke-linejoin="round" />
    <path
        d="M124.651 27.655C131.979 27.655 137.92 21.6881 137.92 14.3275C137.92 6.96694 131.979 1 124.651 1C117.323 1 111.383 6.96694 111.383 14.3275C111.383 21.6881 117.323 27.655 124.651 27.655Z"
        stroke="#1D555C" stroke-width="2" stroke-linecap="round" stroke-linejoin="round" />
    <path
        d="M9.38065 91C14.0092 91 17.7613 87.2312 17.7613 82.5821C17.7613 77.933 14.0092 74.1642 9.38065 74.1642C4.75215 74.1642 1 77.933 1 82.5821C1 87.2312 4.75215 91 9.38065 91Z"
        stroke="#1D555C" stroke-width="2" stroke-linecap="round" stroke-linejoin="round" />
    <path
        d="M67.5853 76.4379C87.1392 76.4379 102.991 60.5158 102.991 40.8749C102.991 21.2341 87.1392 5.31201 67.5853 5.31201C48.0313 5.31201 32.1797 21.2341 32.1797 40.8749C32.1797 60.5158 48.0313 76.4379 67.5853 76.4379Z"
        stroke="#1D555C" stroke-width="2" stroke-linecap="round" stroke-linejoin="round" />
</svg>